<?xml version="1.0"?>
<svg xmlns="http://www.w3.org/2000/svg" width="2546" height="2546" viewBox="0 0 2546 2546" fill="none">
<g clip-path="url(#clip0_3479_22493)">
<rect width="2546" height="2546" fill="white"/>
<path d="M1697.31 2177.65C1674.81 2200.15 1644.28 2212.79 1612.46 2212.79H933.147C901.321 2212.79 870.798 2200.15 848.294 2177.65L367.949 1697.3C345.444 1674.8 332.802 1644.27 332.802 1612.45V933.138C332.802 901.312 345.444 870.79 367.949 848.285L848.294 367.94C870.798 345.436 901.321 332.793 933.147 332.793H1612.46C1644.28 332.793 1674.81 345.436 1697.31 367.94L2177.65 848.285C2200.16 870.79 2212.8 901.312 2212.8 933.138V1612.45C2212.8 1644.27 2200.16 1674.8 2177.65 1697.3L1697.31 2177.65Z" fill="white" stroke="#00D9B5" stroke-width="80"/>
<path d="M2066.71 793.911C2117.12 844.32 2100.1 929.78 2034.22 957.029L1495.19 1179.99C1412.88 1214.04 1330.49 1131.6 1364.58 1049.31L1587.81 510.54C1615.09 444.704 1700.51 427.716 1750.9 478.107L2066.71 793.911Z" fill="white"/>
<rect x="1501.55" y="1064.55" width="30" height="270" rx="15" transform="rotate(-135 1501.55 1064.55)" fill="black"/>
<rect x="1575.09" y="983.938" width="20" height="43" transform="rotate(-135 1575.09 983.938)" fill="#414141"/>
<rect x="1587.1" y="971.918" width="20" height="10" transform="rotate(-135 1587.1 971.918)" fill="white"/>
<path d="M1671.37 622.485C1669.38 615.049 1676.18 608.245 1683.62 610.237L1717.08 619.203C1724.51 621.195 1727 630.49 1721.56 635.933L1697.07 660.428C1691.62 665.871 1682.33 663.381 1680.34 655.945L1671.37 622.485Z" fill="black"/>
<path d="M1922.4 873.507C1929.84 875.499 1936.64 868.695 1934.65 861.26L1925.68 827.799C1923.69 820.363 1914.39 817.873 1908.95 823.316L1884.46 847.811C1879.01 853.254 1881.5 862.549 1888.94 864.541L1922.4 873.507Z" fill="black"/>
<rect x="1802.3" y="884" width="200" height="200" rx="20" transform="rotate(-135 1802.3 884)" fill="#DDDDDD"/>
<rect x="1803.25" y="854.768" width="160" height="160" transform="rotate(-135 1803.25 854.768)" fill="black"/>
<path d="M477.869 1751.28C427.46 1700.87 444.481 1615.41 510.356 1588.16L1049.39 1365.19C1131.69 1331.15 1214.09 1413.59 1179.99 1495.88L956.768 2034.65C929.49 2100.48 844.064 2117.47 793.673 2067.08L477.869 1751.28Z" fill="white"/>
<rect x="1043.03" y="1480.64" width="30" height="270" rx="15" transform="rotate(45 1043.03 1480.64)" fill="black"/>
<rect x="969.492" y="1561.25" width="20" height="43" transform="rotate(45 969.492 1561.25)" fill="#414141"/>
<rect x="957.477" y="1573.27" width="20" height="10" transform="rotate(45 957.477 1573.27)" fill="white"/>
<path d="M873.208 1922.7C875.201 1930.14 868.396 1936.94 860.961 1934.95L827.5 1925.98C820.064 1923.99 817.574 1914.7 823.017 1909.25L847.512 1884.76C852.955 1879.32 862.25 1881.81 864.242 1889.24L873.208 1922.7Z" fill="black"/>
<path d="M622.178 1671.68C614.742 1669.69 607.938 1676.49 609.931 1683.93L618.896 1717.39C620.889 1724.82 630.183 1727.31 635.627 1721.87L660.121 1697.38C665.565 1691.93 663.074 1682.64 655.639 1680.65L622.178 1671.68Z" fill="black"/>
<rect x="742.273" y="1661.19" width="200" height="200" rx="20" transform="rotate(45 742.273 1661.19)" fill="#DDDDDD"/>
<rect x="741.328" y="1690.42" width="160" height="160" transform="rotate(45 741.328 1690.42)" fill="black"/>
<path d="M1750.97 2067.02C1700.56 2117.43 1615.1 2100.4 1587.86 2034.53L1364.89 1495.5C1330.85 1413.19 1413.29 1330.8 1495.58 1364.89L2034.34 1588.12C2100.18 1615.39 2117.17 1700.82 2066.78 1751.21L1750.97 2067.02Z" fill="white"/>
<rect x="1480.34" y="1501.85" width="30" height="270" rx="15" transform="rotate(-45 1480.34 1501.85)" fill="black"/>
<rect x="1560.95" y="1575.39" width="20" height="43" transform="rotate(-45 1560.95 1575.39)" fill="#414141"/>
<rect x="1572.97" y="1587.41" width="20" height="10" transform="rotate(-45 1572.97 1587.41)" fill="white"/>
<path d="M1922.4 1671.68C1929.84 1669.69 1936.64 1676.49 1934.65 1683.93L1925.68 1717.39C1923.69 1724.83 1914.39 1727.32 1908.95 1721.87L1884.46 1697.38C1879.01 1691.94 1881.5 1682.64 1888.94 1680.65L1922.4 1671.68Z" fill="black"/>
<path d="M1671.38 1922.7C1669.39 1930.14 1676.19 1936.94 1683.63 1934.95L1717.09 1925.99C1724.52 1923.99 1727.01 1914.7 1721.57 1909.26L1697.07 1884.76C1691.63 1879.32 1682.34 1881.81 1680.34 1889.24L1671.38 1922.7Z" fill="black"/>
<rect x="1660.88" y="1802.61" width="200" height="200" rx="20" transform="rotate(-45 1660.88 1802.61)" fill="#DDDDDD"/>
<rect x="1690.12" y="1803.56" width="160" height="160" transform="rotate(-45 1690.12 1803.56)" fill="black"/>
<path d="M793.605 478.173C844.014 427.764 929.473 444.785 956.722 510.661L1179.69 1049.69C1213.73 1132 1131.29 1214.39 1049 1180.3L510.234 957.073C444.397 929.795 427.409 844.369 477.8 793.978L793.605 478.173Z" fill="white"/>
<rect x="1064.24" y="1043.34" width="30" height="270" rx="15" transform="rotate(135 1064.24 1043.34)" fill="black"/>
<rect x="983.633" y="969.797" width="20" height="43" transform="rotate(135 983.633 969.797)" fill="#414141"/>
<rect x="971.609" y="957.775" width="20" height="10" transform="rotate(135 971.609 957.775)" fill="white"/>
<path d="M622.178 873.507C614.742 875.499 607.938 868.695 609.931 861.26L618.896 827.799C620.889 820.363 630.183 817.873 635.627 823.316L660.121 847.811C665.565 853.254 663.074 862.549 655.639 864.541L622.178 873.507Z" fill="black"/>
<path d="M873.2 622.485C875.193 615.049 868.389 608.245 860.953 610.237L827.492 619.203C820.057 621.195 817.566 630.49 823.009 635.933L847.504 660.428C852.948 665.871 862.242 663.381 864.235 655.945L873.2 622.485Z" fill="black"/>
<rect x="883.695" y="742.578" width="200" height="200" rx="20" transform="rotate(135 883.695 742.578)" fill="#DDDDDD"/>
<rect x="854.461" y="741.629" width="160" height="160" transform="rotate(135 854.461 741.629)" fill="black"/>
<circle cx="1272.06" cy="1272.74" r="100" fill="#DDDDDD"/>
<circle cx="1272.06" cy="1272.74" r="72" fill="black" stroke="black" stroke-width="6"/>
<path d="M1256.06 1257.1V1288.53C1256.06 1291.98 1258.84 1294.74 1262.3 1294.74C1263.34 1294.74 1264.38 1294.4 1265.42 1294.05L1292.8 1278.51C1295.92 1276.78 1296.96 1272.99 1295.23 1269.88C1294.53 1268.84 1293.84 1268.15 1292.8 1267.46L1265.42 1251.57C1262.65 1249.85 1258.49 1250.88 1256.76 1253.99C1256.41 1255.03 1256.06 1256.06 1256.06 1257.1Z" fill="#DDDDDD"/>
<circle cx="1272.06" cy="612.684" r="77.5" transform="rotate(90 1272.06 612.684)" fill="#FF0000"/>
<circle cx="1272.59" cy="871.164" r="30" transform="rotate(-178.999 1272.59 871.164)" fill="black"/>
<line x1="1272.07" y1="901.159" x2="1272.42" y2="881.162" stroke="white" stroke-width="8"/>
<circle cx="1272.07" cy="1674.69" r="30" transform="rotate(1.00109 1272.07 1674.69)" fill="black"/>
<line x1="1272.59" y1="1644.7" x2="1272.24" y2="1664.7" stroke="white" stroke-width="8"/>
<circle cx="1272.06" cy="1932.74" r="77.5" transform="rotate(90 1272.06 1932.74)" fill="#FFF000"/>
<circle cx="1932.06" cy="1272.74" r="77.5" transform="rotate(-90 1932.06 1272.74)" fill="#0084FF"/>
<rect x="887.461" y="1217.79" width="110" height="40" rx="5" transform="rotate(90 887.461 1217.79)" fill="black"/>
<circle cx="612.562" cy="1272.79" r="77.5" transform="rotate(90 612.562 1272.79)" fill="#00B400"/>
<rect x="882.461" y="1222.8" width="50" height="30" transform="rotate(90 882.461 1222.8)" fill="#424242"/>
<rect x="882.461" y="1228.51" width="8.33333" height="30" transform="rotate(90 882.461 1228.51)" fill="#737373"/>
<rect x="882.461" y="1243.63" width="8.33333" height="30" transform="rotate(90 882.461 1243.63)" fill="#737373"/>
<rect x="882.461" y="1258.75" width="8.33333" height="30" transform="rotate(90 882.461 1258.75)" fill="#737373"/>
<circle cx="1055.63" cy="1182.81" r="52.5" transform="rotate(-157.5 1055.63 1182.81)" fill="#DDDDDD"/>
<circle cx="870.845" cy="1106.27" r="52.5" transform="rotate(-157.5 870.845 1106.27)" fill="#DDDDDD"/>
<circle cx="686.22" cy="1029.79" r="52.5" transform="rotate(-157.5 686.22 1029.79)" fill="#DDDDDD"/>
<circle cx="501.431" cy="953.257" r="52.5" transform="rotate(-157.5 501.431 953.257)" fill="#DDDDDD"/>
<circle cx="2044.18" cy="1592.33" r="52.5" transform="rotate(-157.5 2044.18 1592.33)" fill="#DDDDDD"/>
<circle cx="1859.4" cy="1515.8" r="52.5" transform="rotate(-157.5 1859.4 1515.8)" fill="#DDDDDD"/>
<circle cx="1674.77" cy="1439.32" r="52.5" transform="rotate(-157.5 1674.77 1439.32)" fill="#DDDDDD"/>
<circle cx="1490" cy="1362.78" r="52.5" transform="rotate(-157.5 1490 1362.78)" fill="#DDDDDD"/>
<circle cx="1362.7" cy="1055.58" r="52.5" transform="rotate(-67.5 1362.7 1055.58)" fill="#DDDDDD"/>
<circle cx="1439.24" cy="870.806" r="52.5" transform="rotate(-67.5 1439.24 870.806)" fill="#DDDDDD"/>
<circle cx="1515.71" cy="686.181" r="52.5" transform="rotate(-67.5 1515.71 686.181)" fill="#DDDDDD"/>
<circle cx="1592.25" cy="501.4" r="52.5" transform="rotate(-67.5 1592.25 501.4)" fill="#DDDDDD"/>
<circle cx="953.235" cy="2044.14" r="52.5" transform="rotate(-67.5 953.235 2044.14)" fill="#DDDDDD"/>
<circle cx="1029.77" cy="1859.36" r="52.5" transform="rotate(-67.5 1029.77 1859.36)" fill="#DDDDDD"/>
<circle cx="1106.24" cy="1674.74" r="52.5" transform="rotate(-67.5 1106.24 1674.74)" fill="#DDDDDD"/>
<circle cx="1182.78" cy="1489.95" r="52.5" transform="rotate(-67.5 1182.78 1489.95)" fill="#DDDDDD"/>
<circle cx="1182.8" cy="1055.63" r="52.5" transform="rotate(-112.5 1182.8 1055.63)" fill="#DDDDDD"/>
<circle cx="1106.26" cy="870.853" r="52.5" transform="rotate(-112.5 1106.26 870.853)" fill="#DDDDDD"/>
<circle cx="1029.78" cy="686.224" r="52.5" transform="rotate(-112.5 1029.78 686.224)" fill="#DDDDDD"/>
<circle cx="953.241" cy="501.454" r="52.5" transform="rotate(-112.5 953.241 501.454)" fill="#DDDDDD"/>
<circle cx="1592.2" cy="2044.16" r="52.5" transform="rotate(-112.5 1592.2 2044.16)" fill="#DDDDDD"/>
<circle cx="1515.67" cy="1859.38" r="52.5" transform="rotate(-112.5 1515.67 1859.38)" fill="#DDDDDD"/>
<circle cx="1439.19" cy="1674.75" r="52.5" transform="rotate(-112.5 1439.19 1674.75)" fill="#DDDDDD"/>
<circle cx="1362.66" cy="1489.98" r="52.5" transform="rotate(-112.5 1362.66 1489.98)" fill="#DDDDDD"/>
<circle cx="1489.98" cy="1182.85" r="52.5" transform="rotate(-22.5 1489.98 1182.85)" fill="#DDDDDD"/>
<circle cx="1674.75" cy="1106.31" r="52.5" transform="rotate(-22.5 1674.75 1106.31)" fill="#DDDDDD"/>
<circle cx="1859.38" cy="1029.84" r="52.5" transform="rotate(-22.5 1859.38 1029.84)" fill="#DDDDDD"/>
<circle cx="2044.15" cy="953.305" r="52.5" transform="rotate(-22.5 2044.15 953.305)" fill="#DDDDDD"/>
<circle cx="501.329" cy="1592.33" r="52.5" transform="rotate(-22.5 501.329 1592.33)" fill="#DDDDDD"/>
<circle cx="686.126" cy="1515.79" r="52.5" transform="rotate(-22.5 686.126 1515.79)" fill="#DDDDDD"/>
<circle cx="870.751" cy="1439.31" r="52.5" transform="rotate(-22.5 870.751 1439.31)" fill="#DDDDDD"/>
<circle cx="1055.52" cy="1362.78" r="52.5" transform="rotate(-22.5 1055.52 1362.78)" fill="#DDDDDD"/>
<path d="M1225.44 1723.33C1211.67 1723.33 1200.37 1733.92 1198.96 1747.34C1186.25 1746.64 1180.25 1742.4 1180.25 1732.86C1180.25 1727.57 1183.78 1724.04 1187.31 1724.04C1189.43 1724.04 1191.9 1724.74 1192.25 1727.21C1192.25 1728.27 1192.25 1729.69 1191.55 1730.39C1190.84 1731.1 1190.13 1731.45 1189.08 1731.45C1187.66 1731.45 1186.25 1732.51 1186.25 1734.28C1186.25 1735.69 1187.31 1737.1 1189.08 1737.1C1192.61 1737.1 1194.73 1735.69 1195.78 1734.28C1197.55 1732.51 1198.26 1729.69 1197.9 1726.86C1197.2 1721.92 1193.31 1719.09 1187.66 1719.09C1180.95 1719.09 1175.3 1725.45 1175.3 1733.22C1175.3 1742.4 1179.89 1752.99 1201.79 1752.99H1249.81C1251.22 1752.99 1252.63 1751.93 1252.63 1750.17C1252.28 1735.34 1240.27 1723.33 1225.44 1723.33ZM1240.98 1745.22C1238.51 1748.05 1233.92 1748.05 1231.09 1745.22C1228.27 1742.75 1228.27 1738.16 1231.09 1735.34C1232.51 1733.92 1234.63 1733.22 1236.74 1733.22C1236.39 1733.57 1236.04 1733.57 1235.68 1733.92C1235.68 1733.92 1235.33 1734.28 1235.33 1734.63C1234.27 1736.4 1234.98 1738.51 1236.39 1739.57C1237.8 1740.28 1239.57 1740.28 1240.63 1738.87C1240.63 1738.87 1240.98 1738.51 1240.98 1738.16C1241.33 1737.45 1241.69 1736.4 1241.33 1735.69C1243.81 1738.87 1243.45 1742.75 1240.98 1745.22Z" fill="black"/>
<path d="M1347.27 1698.96C1333.5 1698.96 1322.2 1710.26 1322.2 1724.04V1728.27C1322.2 1730.39 1320.43 1732.16 1318.31 1732.16C1316.2 1732.16 1314.43 1730.39 1314.43 1728.27V1725.09C1314.43 1723.68 1313.37 1722.27 1311.61 1722.27H1304.54C1303.13 1722.27 1301.72 1723.33 1301.72 1725.09V1728.27C1301.72 1737.1 1309.13 1744.52 1317.96 1744.52C1320.43 1744.52 1322.9 1743.81 1325.02 1743.1V1743.46V1750.17C1325.02 1751.58 1326.08 1752.99 1327.85 1752.99H1338.79C1340.21 1752.99 1341.62 1751.93 1341.62 1750.17V1743.46C1341.62 1739.22 1345.15 1736.04 1349.03 1736.04C1352.92 1736.04 1356.45 1739.57 1356.45 1743.46V1750.17C1356.45 1751.58 1357.51 1752.99 1359.27 1752.99H1370.22C1371.63 1752.99 1373.04 1751.93 1373.04 1750.17V1724.04C1372.34 1710.26 1361.04 1698.96 1347.27 1698.96ZM1330.32 1724.39C1328.55 1722.62 1328.2 1720.15 1328.55 1718.03C1328.55 1718.39 1328.91 1718.74 1328.91 1719.44C1328.91 1719.44 1329.26 1719.8 1329.26 1720.15C1330.32 1721.21 1332.09 1721.56 1333.5 1720.86C1335.26 1719.8 1335.62 1717.68 1334.91 1716.27C1334.91 1716.27 1334.56 1715.91 1334.56 1715.56C1333.85 1714.5 1332.44 1714.15 1331.38 1714.5C1334.2 1712.74 1338.09 1713.09 1340.21 1715.56C1342.68 1718.39 1342.68 1722.62 1339.85 1725.09C1337.38 1727.57 1332.79 1727.21 1330.32 1724.39Z" fill="black"/>
<path d="M491.352 1309.11V1303.46H496.649C498.061 1303.46 499.473 1302.4 499.473 1300.63C499.473 1299.22 498.414 1297.81 496.649 1297.81H491.352V1292.86C503.004 1292.86 512.538 1283.33 512.538 1271.68C512.538 1260.02 503.004 1250.49 491.352 1250.49V1245.19H496.649C498.061 1245.19 499.473 1244.13 499.473 1242.37C499.473 1240.95 498.414 1239.54 496.649 1239.54H491.352V1233.89C491.352 1232.48 490.293 1231.07 488.527 1231.07C487.115 1231.07 485.702 1232.13 485.702 1233.89V1239.54H480.759C479.347 1239.54 477.934 1240.6 477.934 1242.37C477.934 1243.78 478.994 1245.19 480.759 1245.19H486.409V1250.49H479.7C478.287 1250.49 476.875 1251.55 476.875 1253.31V1290.75C476.875 1292.16 477.934 1293.57 479.7 1293.57H486.409V1299.22H480.759C479.347 1299.22 477.934 1300.28 477.934 1302.05C477.934 1303.46 478.994 1304.87 480.759 1304.87H486.409V1310.52C486.409 1311.93 487.468 1313.35 489.233 1313.35C490.293 1311.93 491.352 1310.52 491.352 1309.11ZM487.115 1263.91V1263.55C487.115 1261.79 488.527 1260.38 489.94 1260.38C490.646 1260.38 491.705 1260.38 492.411 1261.08C493.118 1261.79 493.471 1262.49 493.824 1263.2C494.177 1264.97 492.764 1266.73 490.999 1267.09C488.88 1267.09 487.468 1266.03 487.115 1263.91ZM487.115 1279.8V1279.45C487.115 1277.68 488.527 1276.27 489.94 1276.27C490.646 1276.27 491.705 1276.27 492.411 1276.97C493.118 1277.68 493.471 1278.39 493.824 1279.09C494.177 1280.86 492.764 1282.62 490.999 1282.98C488.88 1282.98 487.468 1281.56 487.115 1279.8Z" fill="black"/>
<path d="M1198.26 823.202C1199.32 823.556 1200.38 823.556 1201.44 823.556C1205.67 823.556 1209.21 822.143 1212.38 819.671C1212.38 821.437 1213.09 823.202 1213.8 824.968L1199.32 830.618C1198.97 830.971 1196.85 831.678 1196.14 834.15C1195.79 835.209 1195.79 836.621 1196.49 838.387C1198.61 841.918 1202.14 841.565 1204.61 840.506L1219.45 831.678C1219.8 831.678 1219.8 831.325 1220.15 830.971C1221.21 831.325 1222.62 832.031 1224.04 832.031C1231.1 832.384 1236.75 827.087 1237.45 820.377C1237.81 813.668 1232.86 807.665 1225.8 806.958C1225.45 806.958 1225.09 806.958 1224.74 806.958C1222.62 806.958 1220.86 807.665 1219.09 808.371C1219.45 805.899 1219.09 803.78 1218.74 801.662L1224.39 802.721C1227.21 803.427 1230.04 801.308 1230.39 798.483C1230.74 797.071 1230.39 795.658 1229.69 794.599C1228.98 793.54 1227.57 792.48 1226.15 792.48L1211.32 789.655L1207.09 783.652C1206.03 782.239 1204.61 781.533 1202.85 781.533C1201.79 781.533 1200.73 781.886 1199.67 782.593C1197.55 784.005 1196.85 786.83 1197.91 788.949C1190.84 790.361 1185.19 796.011 1183.78 803.427C1182.37 812.255 1188.73 821.437 1198.26 823.202ZM1229.69 814.374C1232.16 816.493 1232.51 819.671 1231.1 821.79C1231.1 821.437 1231.45 821.437 1231.45 821.084C1231.45 820.024 1231.45 819.318 1230.74 818.612C1230.74 818.259 1230.39 817.906 1230.04 817.906C1228.98 816.846 1227.21 816.846 1225.8 817.906C1224.39 818.965 1224.04 821.084 1225.09 822.849C1225.09 823.202 1225.45 823.556 1225.8 823.556C1226.86 824.262 1227.92 824.615 1228.98 823.909C1226.86 824.968 1224.39 824.968 1222.62 823.556L1222.27 823.202C1221.21 822.143 1220.5 820.731 1220.15 819.318C1220.15 817.906 1220.5 816.14 1221.56 815.081C1224.04 812.962 1227.21 812.609 1229.69 814.374Z" fill="black"/>
<path d="M1166.83 812.609H1176.72C1178.13 812.609 1179.54 813.669 1179.54 815.434C1179.54 817.2 1178.48 818.259 1176.72 818.259H1166.83C1165.42 818.259 1164.01 817.2 1164.01 815.434C1164.01 813.669 1165.07 812.609 1166.83 812.609Z" fill="black"/>
<path d="M1161.54 802.367H1171.42C1172.83 802.367 1174.25 803.427 1174.25 805.192C1174.25 806.605 1173.19 808.017 1171.42 808.017H1161.54C1160.12 808.017 1158.71 806.958 1158.71 805.192C1158.71 803.427 1159.77 802.367 1161.54 802.367Z" fill="black"/>
<path d="M1166.48 791.773H1176.37C1177.78 791.773 1179.19 792.833 1179.19 794.598C1179.19 796.011 1178.13 797.424 1176.37 797.424H1166.48C1165.07 797.424 1163.66 796.364 1163.66 794.598C1164.01 792.833 1165.07 791.773 1166.48 791.773Z" fill="black"/>
<path d="M1310.18 2045.38C1309.83 2043.27 1308.42 2041.85 1307.01 2040.44L1294.65 2032.32C1291.12 2030.2 1286.17 2031.26 1284.06 2034.44L1275.93 2046.8C1274.87 2048.56 1274.52 2050.68 1274.87 2052.45C1275.23 2054.57 1276.64 2055.98 1278.05 2057.39L1290.41 2065.51C1291.47 2066.22 1293.24 2066.57 1294.65 2066.57C1297.12 2066.57 1299.59 2065.16 1301 2063.04L1309.13 2050.68C1310.18 2049.27 1310.54 2047.15 1310.18 2045.38ZM1286.17 2053.15C1285.47 2054.21 1284.41 2054.57 1283.35 2054.57C1282.64 2054.57 1281.94 2054.21 1281.58 2053.86C1280.88 2053.51 1280.17 2052.8 1280.17 2051.74C1279.82 2051.04 1280.17 2049.98 1280.52 2049.27C1281.58 2047.86 1283.7 2047.15 1285.11 2048.21C1285.82 2048.56 1286.53 2049.62 1286.53 2050.33C1286.88 2051.39 1286.53 2052.45 1286.17 2053.15ZM1295.35 2051.03C1294.65 2052.09 1293.59 2052.45 1292.53 2052.45C1291.82 2052.45 1291.12 2052.09 1290.76 2051.74C1289.35 2050.68 1288.65 2048.56 1289.7 2047.15C1290.76 2045.74 1292.88 2045.03 1294.3 2046.09C1295 2046.44 1295.71 2047.5 1295.71 2048.21C1296.06 2049.62 1295.71 2050.33 1295.35 2051.03ZM1304.89 2049.27C1304.18 2050.33 1303.12 2050.68 1302.06 2050.68C1301.36 2050.68 1300.65 2050.33 1300.3 2049.98C1299.59 2049.62 1298.89 2048.92 1298.89 2047.86C1298.53 2047.15 1298.89 2046.09 1299.24 2045.38C1300.3 2043.97 1302.42 2043.27 1303.83 2044.33C1304.53 2044.68 1305.24 2045.38 1305.24 2046.44C1305.24 2047.5 1305.24 2048.56 1304.89 2049.27ZM1296.41 2055.98C1297.47 2056.68 1297.83 2057.74 1297.83 2058.8C1297.83 2059.51 1297.47 2060.22 1297.12 2060.57C1296.77 2061.28 1296.06 2061.98 1295 2061.98C1294.3 2062.34 1293.24 2061.98 1292.53 2061.63C1291.12 2060.57 1290.41 2058.45 1291.47 2057.04C1291.82 2056.33 1292.88 2055.63 1293.59 2055.63C1294.65 2055.27 1295.71 2055.27 1296.41 2055.98ZM1292.53 2037.26C1293.59 2037.97 1293.94 2039.03 1293.94 2040.09C1293.94 2040.79 1293.59 2041.5 1293.24 2041.85C1292.88 2042.56 1292.18 2043.27 1291.12 2043.27C1290.41 2043.62 1289.35 2043.27 1288.65 2042.91C1287.23 2041.85 1286.53 2039.73 1287.59 2038.32C1287.94 2037.62 1288.65 2036.91 1289.7 2036.91C1290.76 2036.56 1291.47 2036.91 1292.53 2037.26Z" fill="black"/>
<path d="M1263.58 2041.85C1261.81 2040.79 1259.69 2040.44 1257.93 2040.79L1243.45 2044.33C1239.57 2045.39 1236.74 2049.62 1237.8 2053.51L1241.33 2067.99C1241.69 2070.1 1243.1 2071.52 1244.86 2072.58C1246.63 2073.64 1248.75 2073.99 1250.51 2073.64L1264.99 2070.1C1266.4 2069.75 1267.82 2069.04 1268.88 2067.99C1270.64 2066.22 1271.35 2063.39 1270.64 2060.92L1267.11 2046.44C1266.4 2044.68 1265.34 2042.91 1263.58 2041.85ZM1257.58 2056.69C1257.93 2057.74 1257.58 2058.8 1256.87 2059.86C1256.52 2060.22 1255.81 2060.57 1255.1 2060.92C1253.34 2061.28 1251.57 2060.22 1251.22 2058.45C1250.87 2056.69 1251.93 2054.92 1253.69 2054.21C1254.75 2053.86 1255.46 2054.21 1256.16 2054.57C1256.87 2055.27 1257.58 2055.98 1257.58 2056.69Z" fill="black"/>
<path d="M1223.33 1825.39H1219.44V1830.33C1219.44 1831.04 1218.74 1831.74 1218.03 1831.74C1217.32 1831.74 1216.62 1831.04 1216.62 1830.33V1815.14C1216.62 1814.09 1217.32 1813.38 1218.38 1813.38H1223.68C1227.92 1813.38 1230.74 1815.5 1230.74 1819.38C1230.74 1822.21 1229.33 1823.97 1226.86 1825.03L1229.68 1829.27C1230.39 1830.33 1230.03 1831.04 1229.33 1831.39C1228.62 1831.74 1227.56 1831.74 1227.21 1830.68L1223.33 1825.39ZM1219.44 1816.2V1822.56H1222.97C1225.44 1822.56 1227.21 1821.85 1227.21 1819.38C1227.21 1817.26 1225.44 1816.2 1222.97 1816.2H1219.44Z" fill="black"/>
<path d="M1245.22 1827.86H1237.45L1236.39 1831.04C1236.04 1831.74 1235.33 1832.09 1234.27 1832.09C1233.56 1831.74 1233.21 1831.04 1233.21 1829.98L1238.86 1815.14C1239.21 1814.09 1239.92 1813.38 1240.98 1813.38C1242.04 1813.38 1242.74 1814.09 1243.1 1815.14L1248.75 1829.98C1249.1 1830.68 1248.75 1831.74 1247.69 1832.09C1246.98 1832.45 1245.92 1832.09 1245.57 1831.04L1245.22 1827.86ZM1238.51 1825.03H1244.16L1241.33 1817.62L1238.51 1825.03Z" fill="black"/>
<path d="M1256.16 1818.68V1829.98C1256.16 1831.04 1255.45 1831.74 1254.75 1831.74C1254.04 1831.74 1253.34 1831.04 1253.34 1829.98V1815.5C1253.34 1814.09 1254.4 1813.38 1255.45 1813.38C1256.16 1813.38 1256.51 1813.73 1257.22 1814.08L1265.69 1826.44V1815.14C1265.69 1814.09 1266.4 1813.38 1267.46 1813.38C1268.17 1813.38 1268.87 1814.09 1268.87 1815.14V1829.98C1268.87 1831.39 1267.81 1832.09 1266.75 1832.09C1266.05 1832.09 1265.69 1831.74 1264.99 1831.39L1256.16 1818.68Z" fill="black"/>
<path d="M1278.76 1813.38C1283.7 1813.38 1288.65 1815.5 1288.65 1822.56C1288.65 1829.62 1283.7 1831.74 1278.76 1831.74H1274.52C1273.46 1831.74 1272.76 1831.03 1272.76 1829.98V1814.79C1272.76 1813.73 1273.46 1813.03 1274.52 1813.03H1278.76V1813.38ZM1275.94 1816.2V1828.92H1278.05C1281.94 1828.92 1285.47 1827.5 1285.47 1822.56C1285.47 1817.62 1281.94 1816.2 1278.05 1816.2H1275.94Z" fill="black"/>
<path d="M1300.66 1813.03C1305.95 1813.03 1309.84 1817.26 1309.84 1822.56C1309.84 1827.86 1305.6 1832.09 1300.66 1832.09C1295.36 1832.09 1291.48 1827.86 1291.48 1822.56C1291.48 1817.26 1295.36 1813.03 1300.66 1813.03ZM1300.66 1829.27C1304.19 1829.27 1306.66 1826.44 1306.66 1822.56C1306.66 1819.03 1304.19 1815.85 1300.66 1815.85C1297.13 1815.85 1294.65 1818.68 1294.65 1822.56C1294.65 1826.09 1297.13 1829.27 1300.66 1829.27Z" fill="black"/>
<path d="M1331.37 1829.98C1331.37 1831.04 1330.67 1831.74 1329.96 1831.74C1329.25 1831.74 1328.55 1831.04 1328.55 1829.98V1819.38L1324.31 1827.15C1323.96 1827.86 1323.6 1828.21 1322.9 1828.21C1322.19 1828.21 1321.49 1827.86 1321.13 1827.15L1316.9 1819.38V1829.98C1316.9 1831.04 1316.19 1831.74 1315.48 1831.74C1314.78 1831.74 1314.07 1831.04 1314.07 1829.98V1815.5C1314.07 1814.09 1314.78 1813.38 1316.19 1813.38C1316.9 1813.38 1317.6 1813.73 1317.95 1814.79L1322.9 1824.33L1327.84 1814.79C1328.19 1813.73 1328.9 1813.38 1329.61 1813.38C1330.67 1813.38 1331.73 1814.09 1331.73 1815.5V1829.98H1331.37Z" fill="black"/>
<path d="M1231.8 1600.09C1232.16 1599.38 1232.86 1598.68 1233.92 1599.03C1234.63 1599.38 1234.98 1600.09 1234.63 1601.15L1228.98 1615.98C1228.63 1617.04 1227.57 1617.74 1226.86 1617.74C1225.8 1617.74 1225.09 1617.39 1224.74 1615.98L1219.09 1601.15C1218.74 1600.44 1219.09 1599.38 1219.8 1599.03C1220.5 1598.68 1221.56 1599.03 1221.92 1600.09L1226.86 1613.51L1231.8 1600.09Z" fill="black"/>
<path d="M1245.93 1598.68C1251.23 1598.68 1255.11 1602.91 1255.11 1608.21C1255.11 1613.51 1250.87 1617.74 1245.93 1617.74C1240.99 1617.74 1236.75 1613.51 1236.75 1608.21C1236.75 1602.91 1240.63 1598.68 1245.93 1598.68ZM1246.28 1614.92C1249.81 1614.92 1252.29 1612.09 1252.29 1608.21C1252.29 1604.68 1249.81 1601.5 1246.28 1601.5C1242.75 1601.5 1240.28 1604.33 1240.28 1608.21C1239.93 1612.09 1242.4 1614.92 1246.28 1614.92Z" fill="black"/>
<path d="M1262.17 1614.57H1269.59C1270.29 1614.57 1271 1615.27 1271 1615.98C1271 1616.69 1270.29 1617.39 1269.59 1617.39H1260.76C1259.7 1617.39 1258.99 1616.69 1258.99 1615.63V1600.44C1258.99 1599.74 1259.7 1599.03 1260.4 1599.03C1261.11 1599.03 1261.82 1599.74 1261.82 1600.44V1614.57H1262.17Z" fill="black"/>
<path d="M1288.3 1609.27C1288.3 1614.92 1285.47 1617.75 1280.88 1617.75C1276.29 1617.75 1273.47 1614.92 1273.47 1609.27V1600.44C1273.47 1599.74 1274.17 1599.03 1274.88 1599.03C1275.59 1599.03 1276.29 1599.74 1276.29 1600.44V1609.27C1276.29 1612.8 1277.35 1614.92 1280.53 1614.92C1283.71 1614.92 1284.77 1612.8 1284.77 1609.27V1600.44C1284.77 1599.74 1285.47 1599.03 1286.18 1599.03C1286.89 1599.03 1287.59 1599.74 1287.59 1600.44V1609.27H1288.3Z" fill="black"/>
<path d="M1310.19 1615.98C1310.19 1617.04 1309.49 1617.75 1308.78 1617.75C1308.07 1617.75 1307.37 1617.04 1307.37 1615.98V1605.39L1303.13 1613.15C1302.78 1613.86 1302.42 1614.21 1301.72 1614.21C1301.01 1614.21 1300.31 1613.86 1299.95 1613.15L1295.72 1605.39V1615.98C1295.72 1617.04 1295.01 1617.75 1294.3 1617.75C1293.6 1617.75 1292.89 1617.04 1292.89 1615.98V1601.15C1292.89 1599.74 1293.6 1599.03 1295.01 1599.03C1295.72 1599.03 1296.42 1599.38 1296.77 1600.44L1301.72 1609.98L1306.66 1600.44C1307.01 1599.38 1307.72 1599.03 1308.43 1599.03C1309.49 1599.03 1310.55 1599.74 1310.55 1601.15V1615.98H1310.19Z" fill="black"/>
<path d="M1314.78 1600.79C1314.78 1599.74 1315.49 1599.03 1316.55 1599.03H1326.79C1327.49 1599.03 1328.2 1599.74 1328.2 1600.44C1328.2 1601.15 1327.49 1601.85 1326.79 1601.85H1318.31V1606.44H1326.43C1327.14 1606.44 1327.85 1607.15 1327.85 1607.86C1327.85 1608.56 1327.14 1609.27 1326.43 1609.27H1318.31V1614.21H1326.79C1327.49 1614.21 1328.2 1614.92 1328.2 1615.63C1328.2 1616.33 1327.49 1617.04 1326.79 1617.04H1316.55C1315.49 1617.04 1314.78 1616.33 1314.78 1615.27V1600.79Z" fill="black"/>
<path d="M1307.37 943.972C1306.31 943.972 1305.6 943.266 1305.6 942.56C1305.6 941.853 1306.31 941.147 1307.37 941.147H1311.6V927.022C1311.6 926.316 1312.31 925.609 1313.02 925.609C1313.72 925.609 1314.43 926.316 1314.43 927.022V941.147H1318.67C1319.73 941.147 1320.43 941.853 1320.43 942.56C1320.43 943.266 1319.73 943.972 1318.67 943.972H1307.37Z" fill="black"/>
<path d="M1302.78 942.207C1302.78 943.266 1302.07 943.972 1301.01 943.972H1290.77C1290.07 943.972 1289.36 943.266 1289.36 942.56C1289.36 941.853 1290.07 941.147 1290.77 941.147H1299.25V936.203H1291.12C1290.42 936.203 1289.71 935.497 1289.71 934.791C1289.71 934.085 1290.42 933.378 1291.12 933.378H1299.25V928.434H1290.77C1290.07 928.434 1289.36 927.728 1289.36 927.022C1289.36 926.316 1290.07 925.609 1290.77 925.609H1301.01C1302.07 925.609 1302.78 926.316 1302.78 927.375V942.207Z" fill="black"/>
<path d="M1267.82 927.022C1267.82 925.962 1268.53 925.256 1269.23 925.256C1269.94 925.256 1270.65 925.962 1270.65 927.022V937.615L1274.88 929.847C1275.24 929.14 1275.59 928.787 1276.3 928.787C1277 928.787 1277.71 929.14 1278.06 929.847L1282.3 937.615V927.022C1282.3 925.962 1283.01 925.256 1283.71 925.256C1284.42 925.256 1285.12 925.962 1285.12 927.022V941.853C1285.12 943.266 1284.42 943.972 1283.01 943.972C1282.3 943.972 1281.59 943.619 1281.24 942.559L1276.3 933.025L1271.35 942.559C1271 943.619 1270.29 943.972 1269.59 943.972C1268.53 943.972 1267.47 943.266 1267.47 941.853V927.022H1267.82Z" fill="black"/>
<path d="M1256.17 943.972C1251.93 943.972 1249.11 941.853 1249.11 937.969C1249.11 934.084 1251.93 931.966 1256.17 931.966H1260.06V927.022C1260.06 926.316 1260.76 925.609 1261.47 925.609C1262.17 925.609 1262.88 926.316 1262.88 927.022V942.207C1262.88 943.266 1262.17 943.972 1261.11 943.972H1256.17ZM1260.06 941.147V934.791H1256.52C1254.05 934.791 1252.29 935.497 1252.29 937.969C1252.29 940.088 1254.05 941.147 1256.52 941.147H1260.06Z" fill="black"/>
<path d="M1237.45 944.325C1232.16 944.325 1228.27 940.087 1228.27 934.79C1228.27 929.493 1232.51 925.256 1237.45 925.256C1242.4 925.256 1246.63 929.493 1246.63 934.79C1246.63 940.087 1242.75 944.325 1237.45 944.325ZM1237.45 928.081C1233.92 928.081 1231.45 930.906 1231.45 934.79C1231.45 938.322 1233.92 941.5 1237.45 941.5C1240.98 941.5 1243.46 938.675 1243.46 934.79C1243.46 930.906 1240.98 928.081 1237.45 928.081Z" fill="black"/>
<path d="M1815.48 1310.87V1301.69C1815.48 1300.63 1816.18 1300.28 1816.89 1300.28C1817.6 1300.28 1818.3 1300.63 1818.3 1301.69V1309.11H1822.89V1302.04C1822.89 1300.99 1823.6 1300.63 1824.3 1300.63C1825.01 1300.63 1825.72 1300.99 1825.72 1302.04V1309.11H1832.07C1832.78 1309.11 1833.48 1309.81 1833.48 1310.52C1833.48 1311.23 1832.78 1311.93 1832.07 1311.93H1816.89C1816.18 1312.64 1815.48 1311.93 1815.48 1310.87Z" fill="black"/>
<path d="M1832.43 1293.92C1833.13 1293.92 1833.84 1294.63 1833.84 1295.34C1833.84 1296.04 1833.13 1296.75 1832.43 1296.75H1816.89C1816.18 1296.75 1815.48 1296.04 1815.48 1295.34C1815.48 1294.63 1816.18 1293.92 1816.89 1293.92H1832.43Z" fill="black"/>
<path d="M1831.01 1286.15V1278.74C1831.01 1278.03 1831.72 1277.33 1832.43 1277.33C1833.13 1277.33 1833.84 1278.03 1833.84 1278.74V1287.57C1833.84 1288.63 1833.13 1289.33 1832.07 1289.33H1816.89C1816.18 1289.33 1815.48 1288.63 1815.48 1287.92C1815.48 1287.21 1816.18 1286.51 1816.89 1286.51H1831.01V1286.15Z" fill="black"/>
<path d="M1815.48 1265.67C1815.48 1264.61 1816.18 1263.91 1816.89 1263.91C1817.6 1263.91 1818.3 1264.61 1818.3 1265.67V1269.91H1832.43C1833.13 1269.91 1833.84 1270.62 1833.84 1271.32C1833.84 1272.03 1833.13 1272.74 1832.43 1272.74H1818.3V1276.97C1818.3 1278.03 1817.6 1278.74 1816.89 1278.74C1816.18 1278.74 1815.48 1278.03 1815.48 1276.97V1265.67Z" fill="black"/>
<path d="M1817.24 1260.73C1816.18 1260.73 1815.48 1260.02 1815.48 1258.96V1248.72C1815.48 1248.02 1816.18 1247.31 1816.89 1247.31C1817.6 1247.31 1818.3 1248.02 1818.3 1248.72V1257.2H1822.89V1249.08C1822.89 1248.37 1823.6 1247.66 1824.3 1247.66C1825.01 1247.66 1825.72 1248.37 1825.72 1249.08V1257.2H1830.66V1248.72C1830.66 1248.02 1831.37 1247.31 1832.07 1247.31C1832.78 1247.31 1833.48 1248.02 1833.48 1248.72V1258.96C1833.48 1260.02 1832.78 1260.73 1831.72 1260.73H1817.24Z" fill="black"/>
<path d="M1827.48 1236.72V1240.6H1832.43C1833.13 1240.6 1833.84 1241.31 1833.84 1242.01C1833.84 1242.72 1833.13 1243.43 1832.43 1243.43H1817.24C1816.18 1243.43 1815.48 1242.72 1815.48 1241.66V1236.36C1815.48 1232.13 1817.6 1229.3 1821.48 1229.3C1824.3 1229.3 1826.07 1230.71 1827.13 1233.19L1831.37 1230.36C1832.43 1229.65 1833.13 1230.01 1833.48 1230.71C1833.84 1231.42 1833.84 1232.48 1832.78 1232.83L1827.48 1236.72ZM1818.3 1240.25H1824.66V1236.72C1824.66 1234.24 1823.95 1232.48 1821.48 1232.48C1819.36 1232.48 1818.3 1234.24 1818.3 1236.72V1240.25Z" fill="black"/>
<path d="M913.304 1228.95C914.011 1229.65 914.011 1230.36 913.304 1231.07C912.245 1232.13 911.539 1233.19 911.539 1236.01C911.539 1238.48 912.598 1239.54 914.01 1239.54C915.07 1239.54 916.129 1238.84 916.482 1236.36L916.835 1234.24C917.541 1230.71 919.307 1228.59 922.132 1228.59C925.31 1228.59 927.428 1231.42 927.428 1234.95C927.428 1238.13 926.369 1239.54 925.31 1240.6C924.603 1241.31 923.897 1241.31 923.191 1240.95C922.485 1240.25 922.485 1239.54 922.838 1238.84C923.544 1238.13 924.25 1236.72 924.25 1234.95C924.25 1232.83 923.191 1231.77 921.779 1231.77C920.366 1231.77 919.66 1232.48 919.307 1234.95L918.954 1236.72C918.248 1240.6 916.129 1242.72 913.304 1242.72C910.126 1242.72 908.008 1240.25 908.008 1235.66C908.008 1232.13 909.42 1230.36 910.479 1229.3C911.892 1228.59 912.598 1228.24 913.304 1228.95Z" fill="black"/>
<path d="M922.488 1256.14L910.836 1252.96C909.423 1252.61 909.07 1251.9 909.07 1250.84C909.07 1249.78 909.423 1249.08 910.836 1248.72L925.666 1244.84C926.372 1244.48 927.431 1245.19 927.431 1245.9C927.785 1246.96 927.078 1247.66 926.372 1247.66L914.014 1250.49L925.666 1253.31C926.725 1253.67 927.431 1254.37 927.431 1255.43C927.431 1256.49 926.725 1257.2 925.666 1257.55L914.014 1260.38L926.372 1263.2C927.078 1263.55 927.785 1264.26 927.431 1264.97C927.078 1265.67 926.372 1266.38 925.666 1266.03L910.836 1262.14C909.423 1261.79 909.07 1261.08 909.07 1260.02C909.07 1258.96 909.423 1258.26 910.836 1257.9L922.488 1256.14Z" fill="black"/>
<path d="M910.483 1273.8C909.776 1273.8 909.07 1273.09 909.07 1272.38C909.07 1271.68 909.776 1270.97 910.483 1270.97H926.019C926.725 1270.97 927.431 1271.68 927.431 1272.38C927.431 1273.09 926.725 1273.8 926.019 1273.8H910.483Z" fill="black"/>
<path d="M922.135 1281.56H910.836C909.777 1281.56 909.07 1280.86 909.07 1280.15C909.07 1279.44 909.777 1278.74 910.836 1278.74H925.666C927.078 1278.74 927.785 1279.8 927.785 1280.86C927.785 1281.56 927.431 1281.92 927.078 1282.62L914.72 1291.1H926.019C927.078 1291.1 927.785 1291.8 927.785 1292.86C927.785 1293.92 927.078 1294.28 926.019 1294.28H911.189C909.776 1294.28 909.07 1293.22 909.07 1292.16C909.07 1291.45 909.423 1291.1 909.777 1290.39L922.135 1281.56Z" fill="black"/>
<path d="M918.245 1300.99C914.361 1300.99 911.536 1303.81 911.536 1307.34C911.536 1309.11 912.242 1310.52 912.948 1311.58H915.773V1308.4C915.773 1307.7 916.479 1306.99 917.185 1306.99C917.892 1306.99 918.598 1307.7 918.598 1308.4V1312.99C918.598 1314.05 917.892 1314.76 916.832 1314.76H913.301C912.242 1314.76 911.536 1314.41 910.83 1313.35C909.417 1311.58 908.711 1309.46 908.711 1306.99C908.711 1302.05 912.595 1297.81 918.245 1297.81C923.894 1297.81 927.778 1302.05 927.778 1307.34C927.778 1310.52 926.366 1312.29 924.954 1313.7C924.247 1314.41 923.188 1314.05 922.835 1313.7C922.482 1312.99 922.482 1312.29 923.188 1311.58C923.894 1310.87 924.954 1309.46 924.954 1307.34C924.954 1303.46 922.129 1300.99 918.245 1300.99Z" fill="black"/>
<path d="M729.688 1236.01C729.688 1232.48 726.863 1229.65 722.979 1229.65C719.095 1229.65 716.27 1232.48 716.27 1236.01C716.27 1238.13 717.329 1239.54 718.036 1240.25C718.742 1240.95 718.742 1241.66 718.389 1242.37C717.683 1243.07 716.976 1243.07 716.27 1242.37C714.858 1240.95 713.445 1239.19 713.445 1235.66C713.445 1230.01 717.329 1226.12 722.979 1226.12C728.629 1226.12 732.513 1230.36 732.513 1235.66C732.513 1238.84 731.1 1240.6 729.688 1242.01C728.982 1242.72 727.922 1242.37 727.569 1242.01C727.216 1241.31 727.216 1240.6 727.922 1239.9C728.629 1239.54 729.688 1238.13 729.688 1236.01Z" fill="black"/>
<path d="M720.16 1253.67V1249.78H715.217C714.511 1249.78 713.805 1249.08 713.805 1248.37C713.805 1247.66 714.511 1246.96 715.217 1246.96H730.4C731.46 1246.96 732.166 1247.66 732.166 1248.72V1254.02C732.166 1258.26 730.047 1261.08 726.163 1261.08C723.338 1261.08 721.573 1259.67 720.514 1257.2L716.276 1260.02C715.217 1260.73 714.511 1260.38 714.158 1259.67C713.805 1258.96 713.805 1257.9 714.864 1257.55L720.16 1253.67ZM729.341 1249.78H722.985V1253.31C722.985 1255.79 723.691 1257.55 726.163 1257.55C728.282 1257.55 729.341 1255.79 729.341 1253.31V1249.78Z" fill="black"/>
<path d="M721.92 1278.74C716.27 1278.74 713.445 1275.91 713.445 1271.32C713.445 1266.73 716.27 1263.91 721.92 1263.91H730.747C731.453 1263.91 732.16 1264.61 732.16 1265.32C732.16 1266.03 731.453 1266.73 730.747 1266.73H721.92C718.389 1266.73 716.27 1267.79 716.27 1270.97C716.27 1274.15 718.389 1275.21 721.92 1275.21H730.747C731.453 1275.21 732.16 1275.91 732.16 1276.62C732.16 1277.33 731.453 1278.03 730.747 1278.03H721.92V1278.74Z" fill="black"/>
<path d="M718.039 1282.98C718.745 1283.68 718.745 1284.39 718.039 1285.09C716.979 1286.15 716.273 1287.21 716.273 1290.04C716.273 1292.51 717.332 1293.57 718.745 1293.57C719.804 1293.57 720.864 1292.86 721.217 1290.39L721.57 1288.27C722.276 1284.74 724.041 1282.62 726.866 1282.62C730.044 1282.62 732.163 1285.45 732.163 1288.98C732.163 1292.16 731.103 1293.57 730.044 1294.63C729.338 1295.34 728.632 1295.34 727.925 1294.98C727.219 1294.28 727.219 1293.57 727.572 1292.86C728.279 1292.16 728.985 1290.74 728.985 1288.98C728.985 1286.86 727.925 1285.8 726.513 1285.8C725.101 1285.8 724.394 1286.51 724.041 1288.98L723.688 1290.74C722.982 1294.63 720.863 1296.75 718.039 1296.75C714.861 1296.75 712.742 1294.28 712.742 1289.69C712.742 1286.15 714.155 1284.39 715.214 1283.33C716.626 1282.62 717.686 1282.62 718.039 1282.98Z" fill="black"/>
<path d="M730.753 1312.64C731.46 1312.64 732.166 1313.35 732.166 1314.05C732.166 1314.76 731.46 1315.46 730.753 1315.46H715.217C714.511 1315.46 713.805 1314.76 713.805 1314.05C713.805 1313.35 714.511 1312.29 715.217 1312.29H721.573V1303.81H715.217C714.511 1303.81 713.805 1303.11 713.805 1302.4C713.805 1301.69 714.511 1300.99 715.217 1300.99H730.753C731.46 1300.99 732.166 1301.69 732.166 1302.4C732.166 1303.11 731.46 1303.81 730.753 1303.81H724.751V1312.29H730.753V1312.64Z" fill="black"/>
<path d="M1315.49 717.616H1319.37V712.672C1319.37 711.966 1320.08 711.26 1320.78 711.26C1321.49 711.26 1322.19 711.966 1322.19 712.672V727.857C1322.19 728.916 1321.49 729.623 1320.43 729.623H1315.13C1310.9 729.623 1308.07 727.504 1308.07 723.619C1308.07 720.794 1309.48 719.029 1311.95 717.969L1309.13 713.732C1308.42 712.672 1308.78 711.966 1309.48 711.613C1310.19 711.26 1311.25 711.26 1311.6 712.319L1315.49 717.616ZM1319.37 726.798V720.441H1315.84C1313.37 720.441 1311.6 721.147 1311.6 723.619C1311.6 725.738 1313.37 726.798 1315.84 726.798H1319.37Z" fill="black"/>
<path d="M1304.54 728.209C1304.54 729.268 1303.83 729.974 1302.78 729.974H1292.89C1292.18 729.974 1291.48 729.268 1291.48 728.562C1291.48 727.856 1292.18 727.149 1292.89 727.149H1301.36V722.559H1293.24C1292.54 722.559 1291.83 721.853 1291.83 721.146C1291.83 720.44 1292.54 719.734 1293.24 719.734H1301.36V714.79H1292.89C1292.18 714.79 1291.48 714.084 1291.48 713.377C1291.48 712.671 1292.18 711.965 1292.89 711.965H1303.13C1304.19 711.965 1304.89 712.671 1304.89 713.73V728.209H1304.54Z" fill="black"/>
<path d="M1280.18 729.623C1275.94 729.623 1273.12 727.504 1273.12 723.619C1273.12 719.735 1275.94 717.616 1280.18 717.616H1284.06V712.672C1284.06 711.966 1284.77 711.26 1285.48 711.26C1286.18 711.26 1286.89 711.966 1286.89 712.672V727.857C1286.89 728.916 1286.18 729.623 1285.12 729.623H1280.18ZM1284.06 726.798V720.441H1280.53C1278.06 720.441 1276.3 721.147 1276.3 723.619C1276.3 725.738 1278.06 726.798 1280.53 726.798H1284.06Z" fill="black"/>
<path d="M1269.93 728.209C1269.93 729.268 1269.23 729.974 1268.17 729.974H1257.93C1257.22 729.974 1256.52 729.268 1256.52 728.562C1256.52 727.856 1257.22 727.149 1257.93 727.149H1266.4V722.559H1258.28C1257.57 722.559 1256.87 721.853 1256.87 721.146C1256.87 720.44 1257.57 719.734 1258.28 719.734H1266.4V714.79H1257.93C1257.22 714.79 1256.52 714.084 1256.52 713.377C1256.52 712.671 1257.22 711.965 1257.93 711.965H1268.17C1269.23 711.965 1269.93 712.671 1269.93 713.73V728.209Z" fill="black"/>
<path d="M1242.04 715.143H1249.81L1250.87 711.965C1251.22 711.259 1251.93 710.906 1252.99 710.906C1253.69 711.259 1254.05 711.965 1254.05 713.025L1248.04 727.856C1247.69 728.915 1246.98 729.622 1245.92 729.622C1244.86 729.622 1244.16 728.915 1243.81 727.856L1238.16 713.025C1237.8 712.318 1238.16 711.259 1239.22 710.906C1239.92 710.553 1240.98 710.906 1241.33 711.965L1242.04 715.143ZM1248.75 718.322H1243.1L1245.92 725.737L1248.75 718.322Z" fill="black"/>
<path d="M1225.45 729.623C1224.39 729.623 1223.68 728.916 1223.68 728.21C1223.68 727.504 1224.39 726.798 1225.45 726.798H1229.68V712.672C1229.68 711.966 1230.39 711.26 1231.09 711.26C1231.8 711.26 1232.51 711.966 1232.51 712.672V726.798H1236.74C1237.8 726.798 1238.51 727.504 1238.51 728.21C1238.51 728.916 1237.8 729.623 1236.74 729.623H1225.45Z" fill="black"/>
<path d="M1258.64 507.151C1260.76 507.151 1262.52 505.385 1262.52 503.266V489.494C1262.88 488.788 1263.23 488.082 1263.94 488.082C1264.64 488.082 1265.35 488.788 1265.7 489.494V506.444C1265.7 508.563 1267.47 510.329 1269.58 510.329C1271.7 510.329 1273.47 508.563 1273.47 506.444V489.847C1273.82 489.141 1274.18 488.435 1274.88 488.435C1275.59 488.435 1276.29 489.141 1276.65 489.847V502.913C1276.65 505.032 1278.41 506.798 1280.53 506.798C1282.65 506.798 1284.41 505.032 1284.41 502.913V488.788V488.082V481.372L1290.42 487.375C1291.83 488.788 1294.65 488.788 1296.07 487.375C1297.48 485.963 1297.48 483.138 1296.07 481.725L1286.18 471.838L1279.82 465.481C1279.82 465.481 1279.82 465.481 1279.47 465.128L1279.12 464.775C1276.29 462.303 1272.76 460.891 1268.88 460.891C1260.4 460.891 1253.7 467.6 1253.7 476.075V502.913C1254.75 505.385 1256.52 507.151 1258.64 507.151Z" fill="black"/>
<path d="M1244.87 2144.62C1248.04 2144.62 1249.81 2146.03 1249.81 2148.85C1249.81 2151.68 1247.69 2153.44 1244.87 2153.44H1242.04V2156.97C1242.04 2157.68 1241.69 2158.03 1240.98 2158.03C1240.27 2158.03 1239.92 2157.68 1239.92 2156.97V2145.67C1239.92 2144.97 1240.63 2144.62 1240.98 2144.62H1244.87ZM1242.04 2146.73V2151.32H1244.51C1246.28 2151.32 1247.69 2150.62 1247.69 2148.85C1247.69 2147.09 1246.63 2146.38 1244.51 2146.38H1242.04V2146.73Z" fill="black"/>
<path d="M1258.63 2144.26C1262.52 2144.26 1265.34 2147.09 1265.34 2151.32C1265.34 2155.21 1262.52 2158.39 1258.63 2158.39C1254.75 2158.39 1251.93 2155.56 1251.93 2151.32C1251.57 2147.44 1254.75 2144.26 1258.63 2144.26ZM1258.63 2155.92C1261.11 2155.92 1263.22 2153.8 1263.22 2150.97C1263.22 2148.15 1261.46 2146.03 1258.63 2146.03C1256.16 2146.03 1254.04 2148.15 1254.04 2150.97C1254.04 2154.15 1255.81 2155.92 1258.63 2155.92Z" fill="black"/>
<path d="M1275.23 2148.15L1273.11 2156.62C1272.76 2157.68 1272.4 2158.03 1271.7 2158.03C1270.99 2158.03 1270.29 2157.68 1270.29 2156.62L1267.46 2145.67C1267.46 2144.97 1267.81 2144.26 1268.17 2144.26C1268.87 2144.26 1269.58 2144.61 1269.58 2144.97L1271.7 2153.8L1273.82 2145.32C1274.17 2144.61 1274.52 2143.91 1275.58 2143.91C1276.29 2143.91 1276.99 2144.26 1277.35 2145.32L1279.47 2153.8L1281.58 2144.97C1281.58 2144.26 1282.29 2143.91 1283 2144.26C1283.7 2144.26 1284.06 2144.97 1283.7 2145.67L1280.88 2156.62C1280.53 2157.68 1280.17 2158.03 1279.47 2158.03C1278.76 2158.03 1278.05 2157.68 1278.05 2156.62L1275.23 2148.15Z" fill="black"/>
<path d="M1285.83 2145.67C1285.83 2144.97 1286.53 2144.62 1286.89 2144.62H1294.3C1295.01 2144.62 1295.36 2144.97 1295.36 2145.67C1295.36 2146.38 1295.01 2146.73 1294.3 2146.73H1287.95V2150.27H1293.95C1294.66 2150.27 1295.01 2150.62 1295.01 2151.32C1295.01 2152.03 1294.66 2152.38 1293.95 2152.38H1287.95V2156.27H1294.3C1295.01 2156.27 1295.36 2156.62 1295.36 2157.33C1295.36 2158.03 1295.01 2158.39 1294.3 2158.39H1286.89C1286.18 2158.39 1285.83 2158.03 1285.83 2157.33V2145.67Z" fill="black"/>
<path d="M1303.48 2153.44H1300.66V2156.97C1300.66 2157.68 1300.3 2158.03 1299.6 2158.03C1298.89 2158.03 1298.54 2157.68 1298.54 2156.97V2145.67C1298.54 2144.97 1299.25 2144.62 1299.6 2144.62H1303.48C1306.66 2144.62 1308.43 2146.03 1308.43 2148.85C1308.43 2150.97 1307.37 2152.38 1305.6 2153.09L1307.72 2156.27C1308.07 2156.97 1308.07 2157.68 1307.37 2158.03C1306.66 2158.39 1306.31 2158.39 1305.6 2157.68L1303.48 2153.44ZM1300.66 2146.73V2151.32H1303.13C1304.89 2151.32 1306.31 2150.62 1306.31 2148.85C1306.31 2147.09 1305.25 2146.38 1303.13 2146.38H1300.66V2146.73Z" fill="black"/>
<path d="M1005.46 2155.91H1010.76C1011.47 2155.91 1011.82 2156.27 1011.82 2156.97C1011.82 2157.68 1011.47 2158.03 1010.76 2158.03H1004.4C1003.7 2158.03 1003.34 2157.68 1003.34 2156.97V2145.67C1003.34 2144.97 1003.7 2144.61 1004.4 2144.61C1005.11 2144.61 1005.46 2144.97 1005.46 2145.67V2155.91Z" fill="black"/>
<path d="M1016.76 2156.97C1016.76 2157.68 1016.41 2158.03 1015.7 2158.03C1014.99 2158.03 1014.64 2157.68 1014.64 2156.97V2145.67C1014.64 2144.97 1014.99 2144.61 1015.7 2144.61C1016.41 2144.61 1016.76 2144.97 1016.76 2145.67V2156.97Z" fill="black"/>
<path d="M1022.77 2148.5V2156.62C1022.77 2157.33 1022.41 2157.68 1021.71 2157.68C1021 2157.68 1020.65 2157.33 1020.65 2156.62V2145.67C1020.65 2144.61 1021.35 2144.26 1022.06 2144.26C1022.41 2144.26 1023.12 2144.61 1023.12 2144.97L1029.48 2153.79V2145.32C1029.48 2144.61 1030.18 2144.26 1030.54 2144.26C1031.24 2144.26 1031.59 2144.61 1031.59 2145.32V2156.27C1031.59 2157.33 1030.89 2157.68 1030.18 2157.68C1029.83 2157.68 1029.12 2157.33 1029.12 2156.97L1022.77 2148.5Z" fill="black"/>
<path d="M1035.12 2145.67C1035.12 2144.97 1035.83 2144.61 1036.18 2144.61H1043.6C1044.31 2144.61 1044.66 2144.97 1044.66 2145.67C1044.66 2146.38 1044.31 2146.73 1043.6 2146.73H1037.24V2150.26H1043.25C1043.95 2150.26 1044.31 2150.62 1044.31 2151.32C1044.31 2152.03 1043.95 2152.38 1043.25 2152.38H1037.24V2156.27H1043.6C1044.31 2156.27 1044.66 2156.62 1044.66 2157.33C1044.66 2158.03 1044.31 2158.39 1043.6 2158.39H1036.18C1035.48 2158.39 1035.12 2158.03 1035.12 2157.33V2145.67Z" fill="black"/>
<path d="M1499.45 2154.85C1499.81 2154.5 1500.51 2154.15 1501.22 2154.85C1501.93 2155.56 1502.98 2156.27 1504.75 2156.27C1506.52 2156.27 1507.22 2155.56 1507.22 2154.5C1507.22 2153.79 1506.52 2152.74 1505.1 2152.74L1503.34 2152.38C1500.87 2152.03 1499.45 2150.62 1499.45 2148.5C1499.45 2146.03 1501.57 2144.61 1504.04 2144.61C1506.16 2144.61 1507.57 2145.32 1508.28 2146.03C1508.63 2146.38 1508.99 2147.09 1508.63 2147.79C1508.28 2148.14 1507.57 2148.5 1507.22 2147.79C1506.52 2147.44 1505.81 2146.73 1504.4 2146.73C1502.63 2146.73 1501.93 2147.79 1501.93 2148.5C1501.93 2149.56 1502.63 2149.91 1504.04 2150.26L1505.46 2150.62C1508.28 2150.97 1509.69 2152.74 1509.69 2154.85C1509.69 2156.97 1507.93 2158.74 1504.75 2158.74C1502.28 2158.74 1500.87 2157.68 1500.16 2156.97C1499.1 2155.91 1499.1 2155.21 1499.45 2154.85Z" fill="black"/>
<path d="M1518.87 2145.32C1519.23 2144.61 1519.93 2144.61 1520.29 2144.61C1520.99 2144.97 1520.99 2145.32 1520.64 2146.03L1517.11 2153.09V2156.62C1517.11 2157.33 1516.76 2157.68 1516.05 2157.68C1515.34 2157.68 1514.99 2157.33 1514.99 2156.62V2153.09L1511.46 2146.03C1511.11 2145.32 1511.46 2144.61 1511.81 2144.61C1512.52 2144.26 1512.87 2144.61 1513.22 2145.32L1516.05 2150.97L1518.87 2145.32Z" fill="black"/>
<path d="M1525.94 2148.5V2156.62C1525.94 2157.33 1525.59 2157.68 1524.88 2157.68C1524.17 2157.68 1523.82 2157.33 1523.82 2156.62V2145.67C1523.82 2144.61 1524.53 2144.26 1525.23 2144.26C1525.59 2144.26 1526.29 2144.61 1526.29 2144.97L1532.65 2153.79V2145.32C1532.65 2144.61 1533.35 2144.26 1533.71 2144.26C1534.41 2144.26 1534.77 2144.61 1534.77 2145.32V2156.27C1534.77 2157.33 1534.06 2157.68 1533.35 2157.68C1533 2157.68 1532.29 2157.33 1532.29 2156.97L1525.94 2148.5Z" fill="black"/>
<path d="M1544.65 2146.38C1542.18 2146.38 1540.06 2148.5 1540.06 2151.32C1540.06 2154.15 1542.18 2156.27 1544.65 2156.27C1546.41 2156.27 1547.12 2155.56 1547.83 2154.85C1548.53 2154.15 1548.89 2154.15 1549.24 2154.5C1549.59 2154.85 1549.95 2155.56 1549.24 2155.91C1548.18 2156.97 1546.77 2158.03 1544.3 2158.03C1540.41 2158.03 1537.23 2155.21 1537.23 2151.32C1537.23 2147.08 1540.06 2144.26 1544.3 2144.26C1546.77 2144.26 1548.18 2145.32 1548.89 2146.38C1549.59 2147.08 1549.24 2147.44 1548.89 2147.79C1548.53 2148.14 1547.83 2148.14 1547.47 2147.44C1547.12 2147.08 1546.06 2146.38 1544.65 2146.38Z" fill="black"/>
<path d="M1099.39 2151.32C1099.04 2150.97 1098.33 2150.97 1097.63 2151.32L1094.8 2154.15V2144.97C1094.8 2144.26 1094.45 2143.91 1093.74 2143.91C1093.04 2143.91 1092.68 2144.26 1092.68 2144.97V2154.15L1089.86 2151.32C1089.51 2150.97 1088.8 2150.97 1088.09 2151.32C1087.74 2151.68 1087.74 2152.38 1088.09 2153.09L1093.04 2158.03C1093.39 2158.39 1093.39 2158.39 1093.74 2158.39C1094.1 2158.39 1094.45 2158.39 1094.45 2158.03L1099.39 2153.09C1099.75 2152.74 1099.75 2152.03 1099.39 2151.32Z" fill="black"/>
<path d="M959.212 2149.21L954.269 2144.26C953.916 2143.91 953.916 2143.91 953.563 2143.91C953.21 2143.91 952.857 2143.91 952.857 2144.26L947.913 2149.21C947.56 2149.56 947.56 2150.26 947.913 2150.97C948.266 2151.32 948.266 2151.32 948.619 2151.32C948.973 2151.32 949.326 2151.32 949.326 2150.97L952.15 2148.15V2157.33C952.15 2158.03 952.504 2158.39 953.21 2158.39C953.916 2158.39 954.269 2158.03 954.269 2157.33V2148.15L957.094 2150.97C957.447 2151.32 957.447 2151.32 957.8 2151.32C958.153 2151.32 958.506 2151.32 958.506 2150.97C959.919 2150.26 959.919 2149.56 959.212 2149.21Z" fill="black"/>
<path d="M1600.08 2151.32C1599.73 2150.97 1599.02 2150.97 1598.32 2151.32L1595.49 2154.15V2144.97C1595.49 2144.26 1595.14 2143.91 1594.43 2143.91C1593.73 2143.91 1593.37 2144.26 1593.37 2144.97V2154.15L1590.55 2151.32C1590.2 2150.97 1589.49 2150.97 1588.78 2151.32C1588.08 2151.68 1588.43 2152.38 1588.78 2153.09L1593.73 2158.03C1594.08 2158.39 1594.08 2158.39 1594.43 2158.39C1594.79 2158.39 1595.14 2158.39 1595.14 2158.03L1600.08 2153.09C1600.44 2152.74 1600.44 2152.03 1600.08 2151.32Z" fill="black"/>
<path d="M1459.9 2149.21L1454.96 2144.26C1454.6 2143.91 1454.6 2143.91 1454.25 2143.91C1453.9 2143.91 1453.54 2143.91 1453.54 2144.26L1448.6 2149.21C1448.25 2149.56 1448.25 2150.26 1448.6 2150.97C1448.95 2151.32 1448.95 2151.32 1449.31 2151.32C1449.66 2151.32 1450.01 2151.32 1450.01 2150.97L1452.84 2148.15V2157.33C1452.84 2158.03 1453.19 2158.39 1453.9 2158.39C1454.6 2158.39 1454.96 2158.03 1454.96 2157.33V2148.15L1457.78 2150.97C1458.13 2151.32 1458.13 2151.32 1458.49 2151.32C1458.84 2151.32 1459.19 2151.32 1459.19 2150.97C1460.25 2150.26 1460.25 2149.56 1459.9 2149.21Z" fill="black"/>
<path d="M1093.74 2115.3C1088.44 2115.3 1083.85 2119.54 1083.85 2125.19V2130.14C1083.85 2130.84 1084.2 2131.2 1084.91 2131.2C1085.62 2131.2 1085.97 2130.84 1085.97 2130.14V2125.19C1085.97 2120.95 1089.5 2117.78 1093.39 2117.78C1097.27 2117.78 1100.8 2121.31 1100.8 2125.19V2130.14C1100.8 2130.84 1101.15 2131.2 1101.86 2131.2C1102.57 2131.2 1102.92 2130.84 1102.92 2130.14V2125.19C1103.63 2119.9 1099.03 2115.3 1093.74 2115.3Z" fill="black"/>
<path d="M1089.15 2126.25C1088.44 2126.25 1088.09 2126.61 1088.09 2127.31V2133.31C1088.09 2134.02 1088.44 2134.37 1089.15 2134.37C1089.85 2134.37 1090.2 2134.02 1090.2 2133.31V2127.31C1090.2 2126.61 1089.85 2126.25 1089.15 2126.25Z" fill="black"/>
<path d="M1098.32 2126.25C1097.62 2126.25 1097.27 2126.61 1097.27 2127.31V2133.31C1097.27 2134.02 1097.62 2134.37 1098.32 2134.37C1099.03 2134.37 1099.38 2134.02 1099.38 2133.31V2127.31C1099.38 2126.61 1099.03 2126.25 1098.32 2126.25Z" fill="black"/>
<path d="M1279.11 2124.84C1279.11 2124.49 1279.11 2124.49 1278.76 2124.49C1278.76 2124.49 1278.76 2124.13 1278.41 2124.13H1278.05H1277.7H1272.05L1275.58 2118.48C1275.94 2117.78 1275.94 2117.07 1275.23 2117.07C1274.52 2116.72 1273.82 2116.72 1273.82 2117.42L1269.23 2124.84V2125.19V2125.54V2125.9C1269.23 2125.9 1269.23 2126.25 1269.58 2126.25C1269.93 2126.25 1269.93 2126.6 1270.29 2126.6H1275.94L1272.4 2132.25C1272.05 2132.96 1272.05 2133.67 1272.76 2134.02C1273.11 2134.02 1273.11 2134.37 1273.46 2134.37C1273.82 2134.37 1274.17 2134.02 1274.52 2133.67L1279.11 2126.25C1278.76 2125.19 1278.76 2125.19 1279.11 2124.84Z" fill="black"/>
<path d="M2157.98 1275.91C2158.69 1275.91 2159.39 1276.27 2159.39 1276.97C2159.39 1277.68 2159.04 1278.03 2157.98 1278.03H2150.21L2155.86 1280.86C2156.22 1281.21 2156.57 1281.56 2156.57 1281.92C2156.57 1282.62 2156.22 1282.98 2155.86 1282.98L2150.21 1285.8H2157.98C2158.69 1285.8 2159.39 1286.15 2159.39 1286.86C2159.39 1287.57 2159.04 1287.92 2157.98 1287.92H2147.39C2146.33 1287.92 2145.98 1287.21 2145.98 1286.51C2145.98 1285.8 2146.33 1285.45 2147.04 1285.09L2154.1 1281.56L2147.04 1278.03C2146.33 1277.68 2145.98 1277.33 2145.98 1276.62C2145.98 1275.91 2146.68 1275.21 2147.39 1275.21H2157.98V1275.91Z" fill="black"/>
<path d="M2157.98 1270.26C2158.69 1270.26 2159.04 1270.62 2159.04 1271.32C2159.04 1272.03 2158.69 1272.38 2157.98 1272.38H2146.68C2145.98 1272.38 2145.62 1272.03 2145.62 1271.32C2145.62 1270.62 2145.98 1270.26 2146.68 1270.26H2157.98Z" fill="black"/>
<path d="M2145.62 1262.85C2145.62 1259.32 2147.04 1255.79 2152.33 1255.79C2157.28 1255.79 2159.04 1259.32 2159.04 1262.85V1265.67C2159.04 1266.38 2158.69 1266.73 2157.98 1266.73H2147.04C2146.33 1266.73 2145.98 1266.03 2145.98 1265.67V1262.85H2145.62ZM2147.74 1264.61H2156.92V1263.2C2156.92 1260.38 2155.86 1257.9 2152.33 1257.9C2148.8 1257.9 2147.74 1260.38 2147.74 1263.2V1264.61Z" fill="black"/>
<path d="M2157.98 1250.49C2158.69 1250.49 2159.04 1250.84 2159.04 1251.55C2159.04 1252.25 2158.69 1252.61 2157.98 1252.61H2146.68C2145.98 1252.61 2145.62 1252.25 2145.62 1251.55C2145.62 1250.84 2145.98 1250.49 2146.68 1250.49H2157.98Z" fill="black"/>
<path d="M2153.04 1195.75C2152.69 1196.11 2152.69 1196.81 2153.04 1197.52L2155.86 1200.34H2146.68C2145.98 1200.34 2145.62 1200.7 2145.62 1201.4C2145.62 1202.11 2145.98 1202.46 2146.68 1202.46H2155.86L2153.04 1205.29C2152.69 1205.64 2152.69 1206.35 2153.04 1207.05C2153.39 1207.76 2154.1 1207.41 2154.81 1207.05L2159.75 1202.11C2160.1 1201.76 2160.1 1201.76 2160.1 1201.4C2160.1 1201.05 2160.1 1200.7 2159.75 1200.7L2154.81 1195.75C2154.1 1195.4 2153.39 1195.4 2153.04 1195.75Z" fill="black"/>
<path d="M2150.56 1335.95L2145.62 1340.89C2145.27 1341.24 2145.27 1341.24 2145.27 1341.6C2145.27 1341.95 2145.27 1342.3 2145.62 1342.3L2150.56 1347.25C2150.92 1347.6 2151.62 1347.6 2152.33 1347.25C2152.68 1346.89 2152.68 1346.89 2152.68 1346.54C2152.68 1346.19 2152.68 1345.83 2152.33 1345.83L2149.5 1343.01H2158.68C2159.39 1343.01 2159.74 1342.65 2159.74 1341.95C2159.74 1341.24 2159.39 1340.89 2158.68 1340.89H2149.5L2152.33 1338.06C2152.68 1337.71 2152.68 1337.71 2152.68 1337.36C2152.68 1337 2152.68 1336.65 2152.33 1336.65C2151.62 1335.59 2150.92 1335.59 2150.56 1335.95Z" fill="black"/>
<path d="M1629.04 1314.76V1323.24C1629.04 1323.94 1629.39 1324.65 1630.1 1325.35C1630.8 1326.06 1631.51 1326.41 1632.22 1326.41H1657.99C1658.7 1326.41 1659.41 1326.06 1660.11 1325.35C1660.82 1324.65 1661.17 1323.94 1661.17 1323.24V1314.76C1661.17 1310.17 1659.76 1306.64 1656.58 1303.46C1653.4 1300.28 1649.87 1298.87 1645.28 1298.87C1640.69 1298.87 1637.16 1300.28 1633.98 1303.46C1630.45 1306.64 1629.04 1310.17 1629.04 1314.76ZM1651.99 1307.7C1653.76 1309.46 1654.82 1311.93 1654.82 1314.76V1320.41H1635.04V1314.76C1635.04 1311.93 1636.1 1309.82 1637.87 1307.7C1639.63 1305.93 1642.1 1304.87 1644.93 1304.87C1647.75 1304.87 1649.87 1305.93 1651.99 1307.7Z" fill="black"/>
<path d="M1631.16 1277.68C1629.75 1278.39 1629.04 1279.45 1629.04 1280.86C1629.04 1282.27 1629.75 1282.98 1631.16 1283.68L1656.58 1296.4C1656.93 1296.75 1657.64 1296.75 1657.99 1296.75C1658.7 1296.75 1659.41 1296.4 1660.11 1295.69C1660.82 1294.98 1660.82 1294.28 1660.82 1293.57C1660.82 1292.51 1660.11 1291.45 1659.05 1291.1L1651.99 1287.57V1274.15L1659.05 1270.62C1660.11 1269.91 1660.82 1269.21 1660.82 1268.15C1660.82 1267.44 1660.46 1266.73 1660.11 1266.03C1659.41 1265.32 1658.7 1264.97 1657.99 1264.97C1657.64 1264.97 1656.93 1264.97 1656.58 1265.32L1631.16 1277.68ZM1646.34 1284.39L1638.93 1280.86L1646.34 1277.33V1284.39Z" fill="black"/>
<path d="M1629.04 1246.6V1263.91C1629.04 1264.97 1629.39 1265.67 1629.75 1266.03C1630.1 1266.38 1631.16 1266.73 1631.86 1266.73C1632.92 1266.73 1633.63 1266.38 1633.98 1266.03C1634.34 1265.67 1634.69 1264.61 1634.69 1263.91V1258.26H1657.64C1658.7 1258.26 1659.41 1257.9 1659.76 1257.55C1660.46 1256.85 1660.46 1256.14 1660.46 1255.43C1660.46 1254.37 1660.11 1253.67 1659.76 1253.31C1659.05 1252.61 1658.35 1252.61 1657.64 1252.61H1634.69V1246.96C1634.69 1245.9 1634.34 1245.19 1633.98 1244.84C1633.63 1244.49 1632.57 1244.13 1631.86 1244.13C1630.8 1244.13 1630.1 1244.49 1629.75 1244.84C1629.39 1245.19 1629.04 1245.55 1629.04 1246.6Z" fill="black"/>
<path d="M1629.04 1226.48C1629.04 1231.07 1630.45 1234.6 1633.63 1237.78C1636.81 1240.96 1640.34 1242.37 1644.93 1242.37C1649.52 1242.37 1653.05 1240.96 1656.23 1237.78C1659.41 1234.6 1660.82 1231.07 1660.82 1226.48C1660.82 1221.89 1659.41 1218.35 1656.23 1215.18C1653.05 1212 1649.52 1210.59 1644.93 1210.59C1640.34 1210.59 1636.81 1212 1633.63 1215.18C1630.45 1218.35 1629.04 1222.24 1629.04 1226.48ZM1651.99 1219.41C1653.76 1221.18 1654.82 1223.65 1654.82 1226.48C1654.82 1229.3 1653.76 1231.42 1651.99 1233.54C1650.23 1235.31 1647.75 1236.36 1644.93 1236.36C1642.1 1236.36 1639.99 1235.31 1637.87 1233.54C1636.1 1231.77 1635.04 1229.3 1635.04 1226.48C1635.04 1223.65 1636.1 1221.53 1637.87 1219.41C1639.63 1217.65 1642.1 1216.59 1644.93 1216.59C1647.75 1216.59 1649.87 1217.65 1651.99 1219.41Z" fill="black"/>
<path d="M1612.8 1222.95V1319.7C1612.8 1337.01 1626.92 1351.48 1644.58 1351.48H1644.93C1662.23 1351.48 1676.71 1337.36 1676.71 1319.7V1222.95C1676.71 1205.64 1662.58 1191.16 1644.93 1191.16H1644.58C1627.27 1191.52 1612.8 1205.64 1612.8 1222.95ZM1644.93 1197.52C1659.05 1197.52 1670.35 1208.82 1670.35 1222.95V1319.7C1670.35 1333.83 1659.05 1345.13 1644.93 1345.13H1644.58C1630.45 1345.13 1619.15 1333.83 1619.15 1319.7V1222.95C1619.15 1208.82 1630.45 1197.52 1644.58 1197.52H1644.93Z" fill="black"/>
<path d="M1725.44 1331V1322.53C1725.44 1317.94 1724.02 1314.41 1720.84 1311.23C1717.67 1308.05 1714.14 1306.64 1709.55 1306.64C1704.96 1306.64 1701.42 1308.05 1698.25 1311.23C1695.07 1314.41 1693.66 1318.29 1693.66 1322.53V1331C1693.66 1331.71 1694.01 1332.42 1694.72 1333.12C1695.42 1333.83 1696.13 1334.18 1696.83 1334.18H1722.61C1723.32 1334.18 1724.02 1333.83 1724.73 1333.12C1725.08 1332.77 1725.44 1332.06 1725.44 1331ZM1699.66 1328.18V1322.53C1699.66 1319.7 1700.72 1317.58 1702.48 1315.46C1704.25 1313.7 1706.72 1312.64 1709.55 1312.64C1712.37 1312.64 1714.49 1313.7 1716.61 1315.46C1718.37 1317.23 1719.43 1319.7 1719.43 1322.53V1328.18H1699.66Z" fill="black"/>
<path d="M1733.2 1309.46V1331C1733.2 1332.77 1734.62 1334.18 1736.38 1334.18C1738.15 1334.18 1739.56 1332.77 1739.56 1331V1309.46C1739.56 1307.7 1738.15 1306.28 1736.38 1306.28C1734.62 1306.28 1733.2 1307.7 1733.2 1309.46Z" fill="black"/>
<path d="M1693.66 1247.31C1693.66 1248.37 1694.01 1249.08 1694.36 1249.43C1694.72 1249.78 1695.77 1250.14 1696.48 1250.14H1713.78C1715.2 1250.14 1716.61 1250.84 1717.67 1251.9C1718.73 1252.96 1719.43 1254.37 1719.43 1255.79C1719.43 1257.2 1718.73 1258.61 1717.67 1259.67C1716.61 1260.73 1715.2 1261.44 1713.78 1261.44H1696.48C1695.42 1261.44 1694.72 1261.79 1694.36 1262.14C1694.01 1262.5 1693.66 1263.55 1693.66 1264.26C1693.66 1265.32 1694.01 1266.03 1694.36 1266.38C1694.72 1266.73 1695.77 1267.09 1696.48 1267.09H1713.78C1716.96 1267.09 1719.79 1266.03 1721.9 1263.55C1724.02 1261.44 1725.44 1258.61 1725.44 1255.43C1725.44 1252.25 1724.38 1249.43 1721.9 1247.31C1719.79 1245.19 1716.96 1243.78 1713.78 1243.78H1696.48C1695.42 1243.78 1694.72 1244.13 1694.36 1244.49C1694.01 1244.84 1693.66 1246.6 1693.66 1247.31Z" fill="black"/>
<path d="M1693.66 1278.39V1295.69C1693.66 1297.46 1695.07 1298.87 1696.83 1298.87C1698.6 1298.87 1700.01 1297.46 1700.01 1295.69V1278.39C1700.01 1276.62 1698.6 1275.21 1696.83 1275.21C1695.07 1275.56 1693.66 1276.97 1693.66 1278.39Z" fill="black"/>
<path d="M1733.2 1247.31V1264.61C1733.2 1266.38 1734.62 1267.79 1736.38 1267.79C1738.15 1267.79 1739.56 1266.38 1739.56 1264.61V1247.31C1739.56 1245.55 1738.15 1244.13 1736.38 1244.13C1734.62 1244.13 1733.2 1245.55 1733.2 1247.31Z" fill="black"/>
<path d="M1707.43 1211.64C1707.43 1212.7 1707.78 1213.41 1708.49 1214.12L1718.73 1222.59L1708.49 1231.07C1707.78 1231.77 1707.43 1232.48 1707.43 1233.54C1707.43 1235.3 1708.84 1236.72 1710.61 1236.72H1736.38C1738.15 1236.72 1739.56 1235.3 1739.56 1233.54C1739.56 1231.77 1738.15 1230.36 1736.38 1230.36H1719.08L1725.44 1225.06C1726.14 1224.36 1726.5 1223.65 1726.5 1222.59C1726.5 1221.53 1726.14 1220.83 1725.44 1220.12L1719.08 1214.82H1736.38C1738.15 1214.82 1739.56 1213.41 1739.56 1211.64C1739.56 1209.88 1738.15 1208.47 1736.38 1208.47H1710.61C1708.84 1208.82 1707.43 1210.23 1707.43 1211.64Z" fill="black"/>
<path d="M1693.66 1211.64V1233.19C1693.66 1234.95 1695.07 1236.36 1696.83 1236.36C1698.6 1236.36 1700.01 1234.95 1700.01 1233.19V1211.64C1700.01 1209.88 1698.6 1208.47 1696.83 1208.47C1695.07 1208.82 1693.66 1210.23 1693.66 1211.64Z" fill="black"/>
<path d="M1717.67 1275.56C1712.02 1275.56 1707.43 1280.15 1707.43 1285.8V1295.69C1707.43 1297.45 1708.84 1298.87 1710.61 1298.87H1736.38C1738.15 1298.87 1739.56 1297.45 1739.56 1295.69C1739.56 1293.92 1738.15 1292.51 1736.38 1292.51H1727.91V1287.92L1738.15 1281.21C1739.21 1280.5 1739.56 1279.8 1739.56 1278.74C1739.56 1278.03 1739.56 1277.68 1739.21 1276.97C1738.15 1275.56 1736.38 1275.21 1734.97 1276.27L1727.2 1281.56C1725.44 1278.03 1721.91 1275.56 1717.67 1275.56ZM1721.91 1285.8V1292.86H1713.79V1285.8C1713.79 1283.68 1715.55 1281.56 1718.02 1281.56C1720.49 1281.56 1721.91 1283.33 1721.91 1285.8Z" fill="black"/>
<path d="M1305.25 810.489C1308.07 810.136 1310.9 809.076 1312.66 806.604C1313.37 805.898 1313.72 805.192 1314.08 804.486C1317.26 812.607 1325.02 818.258 1334.2 818.258C1346.21 818.258 1355.74 808.723 1355.74 796.717C1355.74 795.304 1354.68 793.892 1352.92 793.892H1349.74C1350.09 791.773 1351.86 790.007 1353.98 790.007C1355.39 790.007 1356.8 788.948 1356.8 787.182C1356.8 785.77 1355.74 784.357 1353.98 784.357C1349.03 784.357 1344.8 788.242 1344.44 793.538H1323.61C1323.96 791.42 1325.73 789.654 1327.85 789.654C1329.26 789.654 1330.67 788.595 1330.67 786.829C1330.67 785.416 1329.61 784.004 1327.85 784.004C1322.9 784.004 1318.67 787.888 1318.31 793.185H1314.08C1312.31 789.654 1308.43 787.535 1304.54 787.535C1304.19 787.535 1303.84 787.535 1303.84 787.535C1301.01 787.888 1298.19 788.948 1296.42 791.42C1294.66 793.538 1293.6 796.363 1293.95 799.542C1293.95 806.251 1299.25 810.842 1305.25 810.489ZM1298.54 798.835C1298.54 797.423 1299.25 796.01 1300.66 794.951L1301.01 794.598C1303.48 792.832 1306.66 793.185 1308.78 795.657C1309.84 796.717 1310.19 798.129 1310.19 799.895C1310.19 801.307 1309.49 802.72 1308.07 803.779L1307.72 804.132C1306.66 804.839 1305.25 805.192 1303.84 805.192C1304.19 805.192 1304.54 805.192 1304.9 804.839C1306.66 804.132 1307.37 801.66 1306.31 800.248C1305.96 799.542 1305.25 798.835 1304.19 798.482C1303.13 798.129 1302.42 798.129 1301.37 798.835L1301.01 799.189C1299.6 800.248 1299.25 802.014 1299.95 803.426C1298.89 802.014 1298.54 800.248 1298.54 798.835Z" fill="black"/>
<path d="M2042.52 1262.5V1267.09C2042.17 1267.09 2042.17 1267.09 2041.81 1267.09H2039.34C2036.87 1267.09 2034.75 1268.85 2034.75 1271.32V1276.62C2034.75 1279.09 2036.87 1280.86 2039.34 1280.86H2041.81C2042.17 1280.86 2042.17 1280.86 2042.52 1280.86V1286.16C2042.52 1294.28 2049.58 1301.34 2058.05 1301.34H2059.11C2067.59 1301.34 2074.65 1294.63 2074.65 1286.16V1262.14C2074.65 1253.67 2067.59 1246.96 2059.11 1246.96H2058.05C2049.23 1246.96 2042.52 1254.02 2042.52 1262.5ZM2062.29 1285.45C2062.29 1287.57 2060.53 1288.98 2058.41 1288.98C2056.29 1288.98 2054.52 1287.57 2054.52 1285.45C2054.52 1283.33 2056.29 1281.92 2058.41 1281.92C2060.17 1281.57 2062.29 1283.33 2062.29 1285.45ZM2062.29 1274.15C2062.29 1276.27 2060.53 1277.68 2058.41 1277.68C2056.29 1277.68 2054.52 1275.92 2054.52 1274.15C2054.52 1272.38 2056.29 1270.62 2058.41 1270.62C2060.17 1270.62 2062.29 1272.03 2062.29 1274.15ZM2062.29 1263.2C2062.29 1265.32 2060.53 1266.73 2058.41 1266.73C2056.29 1266.73 2054.52 1264.97 2054.52 1263.2C2054.52 1261.44 2056.29 1259.67 2058.41 1259.67C2060.17 1259.32 2062.29 1261.08 2062.29 1263.2Z" fill="black"/>
<path d="M2058.41 1236.36C2056.64 1234.6 2052.4 1232.13 2049.22 1232.13C2045.69 1232.13 2042.52 1234.95 2042.52 1238.84C2042.52 1242.37 2045.34 1245.55 2049.22 1245.55C2052.76 1245.55 2056.64 1243.07 2058.41 1241.31C2060.17 1243.07 2064.41 1245.55 2067.59 1245.55C2071.12 1245.55 2074.29 1242.72 2074.29 1238.84C2074.29 1235.31 2071.47 1232.13 2067.59 1232.13C2064.05 1232.13 2060.17 1234.6 2058.41 1236.36Z" fill="black"/>
<path d="M803.491 1289.69L828.208 1275.56C831.386 1273.8 831.386 1269.21 828.208 1267.44L803.491 1253.31C800.313 1251.55 796.429 1253.67 796.429 1257.2V1261.79H788.661C787.248 1261.79 785.836 1262.85 785.836 1264.61C785.836 1266.38 786.895 1267.44 788.661 1267.44H796.429V1275.91H788.661C787.248 1275.91 785.836 1276.97 785.836 1278.74C785.836 1280.51 786.895 1281.56 788.661 1281.56H796.429V1286.16C796.429 1289.33 800.313 1291.45 803.491 1289.69ZM808.081 1276.97L807.728 1276.62C804.903 1275.21 803.844 1272.03 804.903 1269.21C805.61 1267.79 806.669 1266.73 808.081 1266.03C809.494 1265.32 811.259 1265.32 812.672 1266.03L813.025 1266.38C814.437 1267.09 815.496 1268.15 815.849 1269.56C815.496 1269.21 815.496 1268.85 815.143 1268.5C813.731 1267.44 811.259 1267.79 810.2 1269.56C809.494 1270.26 809.494 1271.32 809.494 1272.38C809.494 1273.44 810.2 1274.15 810.906 1274.86L811.259 1275.21C812.672 1275.91 814.79 1275.56 815.849 1274.15C815.143 1275.56 814.084 1276.62 812.672 1277.33C811.259 1277.68 809.494 1277.68 808.081 1276.97Z" fill="black"/>
<path d="M803.492 1244.49L828.209 1230.36C831.387 1228.59 831.387 1224 828.209 1222.24L803.492 1208.11C800.315 1206.35 796.43 1208.47 796.43 1212V1216.59H795.018C793.959 1216.59 792.899 1215.53 792.899 1214.47V1211.64C792.899 1210.23 791.84 1208.82 790.075 1208.82C788.309 1208.82 787.25 1209.88 787.25 1211.64V1214.47C787.25 1218.71 790.781 1221.89 794.665 1221.89H796.077V1230.36H788.309C786.897 1230.36 785.484 1231.42 785.484 1233.19C785.484 1234.95 786.544 1236.01 788.309 1236.01H796.077V1240.6C796.784 1244.13 800.668 1246.25 803.492 1244.49ZM806.317 1230.71C805.258 1229.65 804.552 1228.24 804.552 1226.48C804.552 1223.3 806.67 1220.83 809.848 1220.47H810.201C811.967 1220.47 813.379 1220.83 814.439 1221.89C815.498 1222.94 816.204 1224.36 816.204 1226.12C815.498 1224.36 814.085 1223.3 812.32 1223.65H811.967C810.908 1224 810.201 1224.36 809.848 1225.42C809.495 1226.12 809.142 1227.18 809.495 1228.24C810.201 1230.01 811.967 1231.42 814.085 1230.71C814.438 1230.71 814.792 1230.36 815.145 1230.01C814.085 1231.07 813.026 1231.77 811.261 1232.13H810.908C809.142 1232.48 807.377 1231.77 806.317 1230.71Z" fill="black"/>
<path d="M796.78 1302.4V1306.99H789.012C787.6 1306.99 786.188 1308.05 786.188 1309.82C786.188 1311.58 787.247 1312.64 789.012 1312.64H796.78V1321.12H795.368C791.131 1321.12 787.953 1324.65 787.953 1328.53V1331.36C787.953 1332.77 789.012 1334.18 790.778 1334.18C792.543 1334.18 793.603 1333.12 793.603 1331.36V1328.53C793.603 1327.47 794.662 1326.41 795.721 1326.41H797.134V1331C797.134 1334.53 801.018 1336.65 804.196 1334.89L828.913 1320.76C832.09 1319 832.09 1314.41 828.913 1312.64L804.196 1298.52C800.665 1296.75 796.78 1298.87 796.78 1302.4ZM810.551 1310.88H810.904C812.317 1311.23 813.729 1311.93 814.789 1312.99C814.435 1312.64 814.082 1312.64 813.729 1312.29C811.964 1311.93 809.845 1312.99 809.139 1314.76C808.786 1315.82 809.139 1316.53 809.492 1317.58C809.845 1318.29 810.904 1319 811.611 1319.35H811.964C813.729 1319.7 815.495 1318.64 815.848 1316.88C815.848 1318.29 815.142 1320.06 814.082 1321.12C813.023 1322.18 811.258 1322.88 809.845 1322.53H809.492C806.314 1322.18 804.196 1319.35 804.196 1316.53C804.196 1315.11 804.902 1313.35 805.961 1312.29C807.373 1311.23 809.139 1310.52 810.551 1310.88Z" fill="black"/>
<rect x="1733.77" y="1803.65" width="102" height="101" transform="rotate(-45 1733.77 1803.65)" fill="#DDDDDD"/>
<path d="M1795.19 1806.33C1793.96 1807.56 1793.96 1809.55 1795.19 1810.77C1796.42 1812 1798.4 1812 1799.63 1810.77C1800.86 1809.55 1800.86 1807.56 1799.63 1806.33C1798.4 1805.1 1796.42 1805.11 1795.19 1806.33Z" fill="black"/>
<path d="M1804.33 1797.19C1803.1 1798.42 1803.1 1800.41 1804.33 1801.63C1805.56 1802.86 1807.54 1802.86 1808.77 1801.63C1810 1800.41 1810 1798.42 1808.77 1797.19C1807.54 1795.96 1805.56 1795.97 1804.33 1797.19Z" fill="black"/>
<path d="M1799.75 1702.32L1700.31 1801.75C1698.48 1803.58 1698.48 1806.55 1700.31 1808.38L1799.75 1907.82C1801.58 1909.65 1804.55 1909.65 1806.38 1907.82L1905.82 1808.38C1907.65 1806.55 1907.65 1803.58 1905.82 1801.75L1806.38 1702.32C1804.55 1700.48 1801.58 1700.48 1799.75 1702.32ZM1820.8 1791.64C1823.18 1794.02 1823.18 1797.88 1820.8 1800.26L1815.76 1805.3L1820.5 1810.05C1821.42 1810.96 1821.42 1812.45 1820.5 1813.36C1819.58 1814.28 1818.1 1814.28 1817.18 1813.36L1812.44 1808.62L1806.62 1814.44L1811.36 1819.18C1812.28 1820.1 1812.28 1821.58 1811.36 1822.5C1810.45 1823.42 1808.96 1823.42 1808.05 1822.5L1803.3 1817.76L1798.26 1822.8C1795.88 1825.18 1792.02 1825.18 1789.64 1822.8L1780.26 1813.42C1777.88 1811.04 1777.88 1807.18 1780.26 1804.8L1802.8 1782.26C1805.18 1779.88 1809.04 1779.88 1811.42 1782.26L1820.8 1791.64Z" fill="black"/>
<rect x="737.211" y="1729.89" width="102" height="101" transform="rotate(45 737.211 1729.89)" fill="#DDDDDD"/>
<path d="M750.072 1803.2C748.846 1801.98 746.858 1801.98 745.632 1803.2C744.404 1804.43 744.405 1806.42 745.631 1807.64C746.858 1808.87 748.846 1808.87 750.073 1807.64C751.3 1806.42 751.299 1804.43 750.072 1803.2Z" fill="black"/>
<path d="M740.932 1794.06C739.705 1792.84 737.717 1792.84 736.491 1794.06C735.264 1795.29 735.264 1797.28 736.491 1798.5C737.717 1799.73 739.705 1799.73 740.932 1798.5C742.159 1797.28 742.158 1795.29 740.932 1794.06Z" fill="black"/>
<path d="M843.822 1799.75L744.385 1700.31C742.554 1698.48 739.586 1698.48 737.755 1700.31L638.317 1799.75C636.486 1801.58 636.485 1804.55 638.316 1806.38L737.753 1905.82C739.584 1907.65 742.552 1907.65 744.383 1905.82L843.821 1806.38C845.652 1804.55 845.652 1801.58 843.822 1799.75ZM752.932 1821.95L749.647 1821.54C747.241 1821.25 744.815 1821.9 742.879 1823.36L740.236 1825.35C736.965 1827.82 732.248 1826.55 730.649 1822.78L729.357 1819.73C728.411 1817.5 726.635 1815.73 724.403 1814.78L721.354 1813.49C717.584 1811.89 716.32 1807.17 718.786 1803.9L720.779 1801.26C722.239 1799.32 722.89 1796.9 722.594 1794.49L722.188 1791.2C721.688 1787.14 725.141 1783.69 729.206 1784.19L732.492 1784.59C734.898 1784.89 737.324 1784.24 739.26 1782.78L741.903 1780.78C745.174 1778.32 749.889 1779.58 751.49 1783.35L752.782 1786.4C753.728 1788.63 755.504 1790.41 757.736 1791.35L760.784 1792.65C764.554 1794.25 765.819 1798.96 763.352 1802.23L761.359 1804.88C759.9 1806.81 759.249 1809.24 759.545 1811.64L759.951 1814.93C760.451 1818.99 756.998 1822.45 752.932 1821.95Z" fill="black"/>
<rect x="814.203" y="738.25" width="102" height="101" transform="rotate(135 814.203 738.25)" fill="#DDDDDD"/>
<path d="M755.935 747.797C757.162 746.57 757.162 744.582 755.935 743.355C754.709 742.129 752.721 742.13 751.494 743.356C750.268 744.583 750.267 746.57 751.494 747.797C752.72 749.023 754.709 749.024 755.935 747.797Z" fill="black"/>
<path d="M748.787 754.945C750.014 753.719 750.013 751.73 748.787 750.504C747.56 749.277 745.573 749.278 744.347 750.504C743.12 751.731 743.119 753.719 744.345 754.945C745.572 756.171 747.561 756.172 748.787 754.945Z" fill="black"/>
<path d="M745.382 843.819L844.818 744.383C846.649 742.553 846.648 739.584 844.818 737.753L745.38 638.315C743.549 636.485 740.58 636.484 738.75 638.315L639.314 737.751C637.483 739.582 637.483 742.551 639.314 744.381L738.752 843.819C740.582 845.65 743.551 845.65 745.382 843.819ZM727.301 750.996L737.988 740.309L731.609 733.93L721.385 733.928C720.09 733.93 719.042 732.877 719.042 731.585C719.042 730.936 719.302 730.352 719.727 729.927C720.151 729.502 720.738 729.239 721.385 729.242L730.24 729.243L730.239 720.387C730.239 719.739 730.499 719.154 730.924 718.729C731.349 718.305 731.934 718.044 732.582 718.044C733.877 718.042 734.928 719.093 734.925 720.387L734.928 730.617L741.304 736.993L751.994 726.303C755.999 722.298 762.824 725.444 762.378 731.091L760.572 753.978C760.335 756.965 757.963 759.337 754.977 759.574L732.089 761.379C726.443 761.825 723.296 755.001 727.301 750.996Z" fill="black"/>
<rect x="1801.88" y="802.35" width="91.6667" height="91.6667" transform="rotate(-135 1801.88 802.35)" fill="#DDDDDD"/>
<path d="M1811.17 742.097C1812.4 743.324 1814.39 743.324 1815.61 742.097C1816.84 740.871 1816.84 738.883 1815.61 737.657C1814.38 736.43 1812.4 736.43 1811.17 737.656C1809.94 738.882 1809.94 740.871 1811.17 742.097Z" fill="black"/>
<path d="M1802.03 732.959C1803.26 734.186 1805.24 734.185 1806.47 732.959C1807.7 731.732 1807.7 729.745 1806.47 728.518C1805.24 727.292 1803.26 727.291 1802.03 728.517C1800.8 729.744 1800.8 731.732 1802.03 732.959Z" fill="black"/>
<path d="M1700.31 744.381L1799.75 843.818C1801.58 845.649 1804.55 845.648 1806.38 843.818L1905.81 744.382C1907.64 742.551 1907.64 739.583 1905.81 737.752L1806.38 638.315C1804.55 636.485 1801.58 636.485 1799.75 638.316L1700.31 737.752C1698.48 739.582 1698.48 742.551 1700.31 744.381ZM1801.69 709.622C1802.34 709.62 1802.93 709.882 1803.35 710.307C1803.78 710.732 1804.04 711.316 1804.04 711.965L1804.04 719.082C1809.35 719.317 1814.59 721.435 1818.64 725.488C1822.69 729.542 1824.81 734.782 1825.05 740.09L1832.16 740.092C1832.81 740.092 1833.4 740.353 1833.82 740.777C1834.25 741.202 1834.51 741.789 1834.51 742.435C1834.51 743.73 1833.46 744.779 1832.16 744.779L1824.76 744.777C1824.02 749.122 1821.99 753.291 1818.64 756.645C1810.04 765.248 1796.09 765.248 1787.48 756.644C1778.88 748.041 1778.88 734.091 1787.48 725.488C1790.84 722.133 1795.01 720.106 1799.35 719.367L1799.35 711.965C1799.35 710.672 1800.4 709.62 1801.69 709.622Z" fill="black"/>
</g>
<defs>
<clipPath id="clip0_3479_22493">
<rect width="2546" height="2546" fill="white"/>
</clipPath>
</defs>
</svg>
